<?xml version="1.0" encoding="utf-8" standalone="no"?>
<!DOCTYPE svg PUBLIC "-//W3C//DTD SVG 1.1//EN"
  "http://www.w3.org/Graphics/SVG/1.1/DTD/svg11.dtd">
<svg height="283.113972pt" version="1.1" viewBox="0 0 857.961164 283.113972" width="857.961164pt" xmlns="http://www.w3.org/2000/svg" xmlns:xlink="http://www.w3.org/1999/xlink">
 <metadata>
  <rdf:RDF xmlns:cc="http://creativecommons.org/ns#" xmlns:dc="http://purl.org/dc/elements/1.1/" xmlns:rdf="http://www.w3.org/1999/02/22-rdf-syntax-ns#">
   <cc:Work>
    <dc:type rdf:resource="http://purl.org/dc/dcmitype/StillImage"/>
    <dc:date>2021-07-21T10:31:20.445268</dc:date>
    <dc:format>image/svg+xml</dc:format>
    <dc:creator>
     <cc:Agent>
      <dc:title>Matplotlib v3.4.2, https://matplotlib.org/</dc:title>
     </cc:Agent>
    </dc:creator>
   </cc:Work>
  </rdf:RDF>
 </metadata>
 <defs>
  <style type="text/css">*{stroke-linecap:butt;stroke-linejoin:round;}</style>
 </defs>
 <g id="figure_1">
  <g id="patch_1">
   <path d="M 0 283.113972 
L 857.961164 283.113972 
L 857.961164 0 
L 0 0 
z
" style="fill:#ffffff;"/>
  </g>
  <g id="axes_1">
   <g id="patch_2">
    <path d="M 41.875891 239.365163 
L 208.057203 239.365163 
L 208.057203 39.894194 
L 41.875891 39.894194 
z
" style="fill:#ffffff;"/>
   </g>
   <g id="matplotlib.axis_1">
    <g id="xtick_1">
     <g id="line2d_1">
      <path clip-path="url(#p670f14a381)" d="M 74.956704 239.365163 
L 74.956704 39.894194 
" style="fill:none;stroke:#cccccc;stroke-dasharray:1,1.65;stroke-dashoffset:0;"/>
     </g>
     <g id="text_1">
      <!-- −0.5 -->
      <g style="fill:#262626;" transform="translate(65.607822 254.715959)scale(0.077 -0.077)">
       <defs>
        <path d="M 678 2272 
L 4684 2272 
L 4684 1741 
L 678 1741 
L 678 2272 
z
" id="DejaVuSans-2212" transform="scale(0.015625)"/>
        <path d="M 2034 4250 
Q 1547 4250 1301 3770 
Q 1056 3291 1056 2328 
Q 1056 1369 1301 889 
Q 1547 409 2034 409 
Q 2525 409 2770 889 
Q 3016 1369 3016 2328 
Q 3016 3291 2770 3770 
Q 2525 4250 2034 4250 
z
M 2034 4750 
Q 2819 4750 3233 4129 
Q 3647 3509 3647 2328 
Q 3647 1150 3233 529 
Q 2819 -91 2034 -91 
Q 1250 -91 836 529 
Q 422 1150 422 2328 
Q 422 3509 836 4129 
Q 1250 4750 2034 4750 
z
" id="DejaVuSans-30" transform="scale(0.015625)"/>
        <path d="M 684 794 
L 1344 794 
L 1344 0 
L 684 0 
L 684 794 
z
" id="DejaVuSans-2e" transform="scale(0.015625)"/>
        <path d="M 691 4666 
L 3169 4666 
L 3169 4134 
L 1269 4134 
L 1269 2991 
Q 1406 3038 1543 3061 
Q 1681 3084 1819 3084 
Q 2600 3084 3056 2656 
Q 3513 2228 3513 1497 
Q 3513 744 3044 326 
Q 2575 -91 1722 -91 
Q 1428 -91 1123 -41 
Q 819 9 494 109 
L 494 744 
Q 775 591 1075 516 
Q 1375 441 1709 441 
Q 2250 441 2565 725 
Q 2881 1009 2881 1497 
Q 2881 1984 2565 2268 
Q 2250 2553 1709 2553 
Q 1456 2553 1204 2497 
Q 953 2441 691 2322 
L 691 4666 
z
" id="DejaVuSans-35" transform="scale(0.015625)"/>
       </defs>
       <use xlink:href="#DejaVuSans-2212"/>
       <use x="83.789062" xlink:href="#DejaVuSans-30"/>
       <use x="147.412109" xlink:href="#DejaVuSans-2e"/>
       <use x="179.199219" xlink:href="#DejaVuSans-35"/>
      </g>
     </g>
    </g>
    <g id="xtick_2">
     <g id="line2d_2">
      <path clip-path="url(#p670f14a381)" d="M 140.370863 239.365163 
L 140.370863 39.894194 
" style="fill:none;stroke:#cccccc;stroke-dasharray:1,1.65;stroke-dashoffset:0;"/>
     </g>
     <g id="text_2">
      <!-- 0.0 -->
      <g style="fill:#262626;" transform="translate(134.24816 254.715959)scale(0.077 -0.077)">
       <use xlink:href="#DejaVuSans-30"/>
       <use x="63.623047" xlink:href="#DejaVuSans-2e"/>
       <use x="95.410156" xlink:href="#DejaVuSans-30"/>
      </g>
     </g>
    </g>
    <g id="xtick_3">
     <g id="line2d_3">
      <path clip-path="url(#p670f14a381)" d="M 205.785021 239.365163 
L 205.785021 39.894194 
" style="fill:none;stroke:#cccccc;stroke-dasharray:1,1.65;stroke-dashoffset:0;"/>
     </g>
     <g id="text_3">
      <!-- 0.5 -->
      <g style="fill:#262626;" transform="translate(199.662318 254.715959)scale(0.077 -0.077)">
       <use xlink:href="#DejaVuSans-30"/>
       <use x="63.623047" xlink:href="#DejaVuSans-2e"/>
       <use x="95.410156" xlink:href="#DejaVuSans-35"/>
      </g>
     </g>
    </g>
    <g id="text_4">
     <!-- PC1 (35%) -->
     <g style="fill:#262626;" transform="translate(98.675141 267.915756)scale(0.1 -0.1)">
      <defs>
       <path d="M 1259 4147 
L 1259 2394 
L 2053 2394 
Q 2494 2394 2734 2622 
Q 2975 2850 2975 3272 
Q 2975 3691 2734 3919 
Q 2494 4147 2053 4147 
L 1259 4147 
z
M 628 4666 
L 2053 4666 
Q 2838 4666 3239 4311 
Q 3641 3956 3641 3272 
Q 3641 2581 3239 2228 
Q 2838 1875 2053 1875 
L 1259 1875 
L 1259 0 
L 628 0 
L 628 4666 
z
" id="DejaVuSans-50" transform="scale(0.015625)"/>
       <path d="M 4122 4306 
L 4122 3641 
Q 3803 3938 3442 4084 
Q 3081 4231 2675 4231 
Q 1875 4231 1450 3742 
Q 1025 3253 1025 2328 
Q 1025 1406 1450 917 
Q 1875 428 2675 428 
Q 3081 428 3442 575 
Q 3803 722 4122 1019 
L 4122 359 
Q 3791 134 3420 21 
Q 3050 -91 2638 -91 
Q 1578 -91 968 557 
Q 359 1206 359 2328 
Q 359 3453 968 4101 
Q 1578 4750 2638 4750 
Q 3056 4750 3426 4639 
Q 3797 4528 4122 4306 
z
" id="DejaVuSans-43" transform="scale(0.015625)"/>
       <path d="M 794 531 
L 1825 531 
L 1825 4091 
L 703 3866 
L 703 4441 
L 1819 4666 
L 2450 4666 
L 2450 531 
L 3481 531 
L 3481 0 
L 794 0 
L 794 531 
z
" id="DejaVuSans-31" transform="scale(0.015625)"/>
       <path id="DejaVuSans-20" transform="scale(0.015625)"/>
       <path d="M 1984 4856 
Q 1566 4138 1362 3434 
Q 1159 2731 1159 2009 
Q 1159 1288 1364 580 
Q 1569 -128 1984 -844 
L 1484 -844 
Q 1016 -109 783 600 
Q 550 1309 550 2009 
Q 550 2706 781 3412 
Q 1013 4119 1484 4856 
L 1984 4856 
z
" id="DejaVuSans-28" transform="scale(0.015625)"/>
       <path d="M 2597 2516 
Q 3050 2419 3304 2112 
Q 3559 1806 3559 1356 
Q 3559 666 3084 287 
Q 2609 -91 1734 -91 
Q 1441 -91 1130 -33 
Q 819 25 488 141 
L 488 750 
Q 750 597 1062 519 
Q 1375 441 1716 441 
Q 2309 441 2620 675 
Q 2931 909 2931 1356 
Q 2931 1769 2642 2001 
Q 2353 2234 1838 2234 
L 1294 2234 
L 1294 2753 
L 1863 2753 
Q 2328 2753 2575 2939 
Q 2822 3125 2822 3475 
Q 2822 3834 2567 4026 
Q 2313 4219 1838 4219 
Q 1578 4219 1281 4162 
Q 984 4106 628 3988 
L 628 4550 
Q 988 4650 1302 4700 
Q 1616 4750 1894 4750 
Q 2613 4750 3031 4423 
Q 3450 4097 3450 3541 
Q 3450 3153 3228 2886 
Q 3006 2619 2597 2516 
z
" id="DejaVuSans-33" transform="scale(0.015625)"/>
       <path d="M 4653 2053 
Q 4381 2053 4226 1822 
Q 4072 1591 4072 1178 
Q 4072 772 4226 539 
Q 4381 306 4653 306 
Q 4919 306 5073 539 
Q 5228 772 5228 1178 
Q 5228 1588 5073 1820 
Q 4919 2053 4653 2053 
z
M 4653 2450 
Q 5147 2450 5437 2106 
Q 5728 1763 5728 1178 
Q 5728 594 5436 251 
Q 5144 -91 4653 -91 
Q 4153 -91 3862 251 
Q 3572 594 3572 1178 
Q 3572 1766 3864 2108 
Q 4156 2450 4653 2450 
z
M 1428 4353 
Q 1159 4353 1004 4120 
Q 850 3888 850 3481 
Q 850 3069 1003 2837 
Q 1156 2606 1428 2606 
Q 1700 2606 1854 2837 
Q 2009 3069 2009 3481 
Q 2009 3884 1853 4118 
Q 1697 4353 1428 4353 
z
M 4250 4750 
L 4750 4750 
L 1831 -91 
L 1331 -91 
L 4250 4750 
z
M 1428 4750 
Q 1922 4750 2215 4408 
Q 2509 4066 2509 3481 
Q 2509 2891 2217 2550 
Q 1925 2209 1428 2209 
Q 931 2209 642 2551 
Q 353 2894 353 3481 
Q 353 4063 643 4406 
Q 934 4750 1428 4750 
z
" id="DejaVuSans-25" transform="scale(0.015625)"/>
       <path d="M 513 4856 
L 1013 4856 
Q 1481 4119 1714 3412 
Q 1947 2706 1947 2009 
Q 1947 1309 1714 600 
Q 1481 -109 1013 -844 
L 513 -844 
Q 928 -128 1133 580 
Q 1338 1288 1338 2009 
Q 1338 2731 1133 3434 
Q 928 4138 513 4856 
z
" id="DejaVuSans-29" transform="scale(0.015625)"/>
      </defs>
      <use xlink:href="#DejaVuSans-50"/>
      <use x="60.302734" xlink:href="#DejaVuSans-43"/>
      <use x="130.126953" xlink:href="#DejaVuSans-31"/>
      <use x="193.75" xlink:href="#DejaVuSans-20"/>
      <use x="225.537109" xlink:href="#DejaVuSans-28"/>
      <use x="264.550781" xlink:href="#DejaVuSans-33"/>
      <use x="328.173828" xlink:href="#DejaVuSans-35"/>
      <use x="391.796875" xlink:href="#DejaVuSans-25"/>
      <use x="486.816406" xlink:href="#DejaVuSans-29"/>
     </g>
    </g>
   </g>
   <g id="matplotlib.axis_2">
    <g id="ytick_1">
     <g id="line2d_4">
      <path clip-path="url(#p670f14a381)" d="M 41.875891 204.640705 
L 208.057203 204.640705 
" style="fill:none;stroke:#cccccc;stroke-dasharray:1,1.65;stroke-dashoffset:0;"/>
     </g>
     <g id="text_5">
      <!-- −0.4 -->
      <g style="fill:#262626;" transform="translate(13.678125 207.566103)scale(0.077 -0.077)">
       <defs>
        <path d="M 2419 4116 
L 825 1625 
L 2419 1625 
L 2419 4116 
z
M 2253 4666 
L 3047 4666 
L 3047 1625 
L 3713 1625 
L 3713 1100 
L 3047 1100 
L 3047 0 
L 2419 0 
L 2419 1100 
L 313 1100 
L 313 1709 
L 2253 4666 
z
" id="DejaVuSans-34" transform="scale(0.015625)"/>
       </defs>
       <use xlink:href="#DejaVuSans-2212"/>
       <use x="83.789062" xlink:href="#DejaVuSans-30"/>
       <use x="147.412109" xlink:href="#DejaVuSans-2e"/>
       <use x="179.199219" xlink:href="#DejaVuSans-34"/>
      </g>
     </g>
    </g>
    <g id="ytick_2">
     <g id="line2d_5">
      <path clip-path="url(#p670f14a381)" d="M 41.875891 166.572871 
L 208.057203 166.572871 
" style="fill:none;stroke:#cccccc;stroke-dasharray:1,1.65;stroke-dashoffset:0;"/>
     </g>
     <g id="text_6">
      <!-- −0.2 -->
      <g style="fill:#262626;" transform="translate(13.678125 169.498269)scale(0.077 -0.077)">
       <defs>
        <path d="M 1228 531 
L 3431 531 
L 3431 0 
L 469 0 
L 469 531 
Q 828 903 1448 1529 
Q 2069 2156 2228 2338 
Q 2531 2678 2651 2914 
Q 2772 3150 2772 3378 
Q 2772 3750 2511 3984 
Q 2250 4219 1831 4219 
Q 1534 4219 1204 4116 
Q 875 4013 500 3803 
L 500 4441 
Q 881 4594 1212 4672 
Q 1544 4750 1819 4750 
Q 2544 4750 2975 4387 
Q 3406 4025 3406 3419 
Q 3406 3131 3298 2873 
Q 3191 2616 2906 2266 
Q 2828 2175 2409 1742 
Q 1991 1309 1228 531 
z
" id="DejaVuSans-32" transform="scale(0.015625)"/>
       </defs>
       <use xlink:href="#DejaVuSans-2212"/>
       <use x="83.789062" xlink:href="#DejaVuSans-30"/>
       <use x="147.412109" xlink:href="#DejaVuSans-2e"/>
       <use x="179.199219" xlink:href="#DejaVuSans-32"/>
      </g>
     </g>
    </g>
    <g id="ytick_3">
     <g id="line2d_6">
      <path clip-path="url(#p670f14a381)" d="M 41.875891 128.505037 
L 208.057203 128.505037 
" style="fill:none;stroke:#cccccc;stroke-dasharray:1,1.65;stroke-dashoffset:0;"/>
     </g>
     <g id="text_7">
      <!-- 0.0 -->
      <g style="fill:#262626;" transform="translate(20.130484 131.430435)scale(0.077 -0.077)">
       <use xlink:href="#DejaVuSans-30"/>
       <use x="63.623047" xlink:href="#DejaVuSans-2e"/>
       <use x="95.410156" xlink:href="#DejaVuSans-30"/>
      </g>
     </g>
    </g>
    <g id="ytick_4">
     <g id="line2d_7">
      <path clip-path="url(#p670f14a381)" d="M 41.875891 90.437203 
L 208.057203 90.437203 
" style="fill:none;stroke:#cccccc;stroke-dasharray:1,1.65;stroke-dashoffset:0;"/>
     </g>
     <g id="text_8">
      <!-- 0.2 -->
      <g style="fill:#262626;" transform="translate(20.130484 93.362602)scale(0.077 -0.077)">
       <use xlink:href="#DejaVuSans-30"/>
       <use x="63.623047" xlink:href="#DejaVuSans-2e"/>
       <use x="95.410156" xlink:href="#DejaVuSans-32"/>
      </g>
     </g>
    </g>
    <g id="ytick_5">
     <g id="line2d_8">
      <path clip-path="url(#p670f14a381)" d="M 41.875891 52.369369 
L 208.057203 52.369369 
" style="fill:none;stroke:#cccccc;stroke-dasharray:1,1.65;stroke-dashoffset:0;"/>
     </g>
     <g id="text_9">
      <!-- 0.4 -->
      <g style="fill:#262626;" transform="translate(20.130484 55.294768)scale(0.077 -0.077)">
       <use xlink:href="#DejaVuSans-30"/>
       <use x="63.623047" xlink:href="#DejaVuSans-2e"/>
       <use x="95.410156" xlink:href="#DejaVuSans-34"/>
      </g>
     </g>
    </g>
    <g id="text_10">
     <!-- PC2 (20%) -->
     <g style="fill:#262626;" transform="translate(7.598438 165.921084)rotate(-90)scale(0.1 -0.1)">
      <use xlink:href="#DejaVuSans-50"/>
      <use x="60.302734" xlink:href="#DejaVuSans-43"/>
      <use x="130.126953" xlink:href="#DejaVuSans-32"/>
      <use x="193.75" xlink:href="#DejaVuSans-20"/>
      <use x="225.537109" xlink:href="#DejaVuSans-28"/>
      <use x="264.550781" xlink:href="#DejaVuSans-32"/>
      <use x="328.173828" xlink:href="#DejaVuSans-30"/>
      <use x="391.796875" xlink:href="#DejaVuSans-25"/>
      <use x="486.816406" xlink:href="#DejaVuSans-29"/>
     </g>
    </g>
   </g>
   <g id="PathCollection_1">
    <defs>
     <path d="M 0 3 
C 0.795609 3 1.55874 2.683901 2.12132 2.12132 
C 2.683901 1.55874 3 0.795609 3 0 
C 3 -0.795609 2.683901 -1.55874 2.12132 -2.12132 
C 1.55874 -2.683901 0.795609 -3 0 -3 
C -0.795609 -3 -1.55874 -2.683901 -2.12132 -2.12132 
C -2.683901 -1.55874 -3 -0.795609 -3 0 
C -3 0.795609 -2.683901 1.55874 -2.12132 2.12132 
C -1.55874 2.683901 -0.795609 3 0 3 
z
" id="m73d614afc4" style="stroke:#1a1a1a;stroke-width:0.5;"/>
    </defs>
    <g clip-path="url(#p670f14a381)">
     <use style="fill:#0173b2;stroke:#1a1a1a;stroke-width:0.5;" x="49.429587" xlink:href="#m73d614afc4" y="48.961056"/>
     <use style="fill:#0173b2;stroke:#1a1a1a;stroke-width:0.5;" x="95.570955" xlink:href="#m73d614afc4" y="230.045671"/>
     <use style="fill:#0173b2;stroke:#1a1a1a;stroke-width:0.5;" x="124.218677" xlink:href="#m73d614afc4" y="230.2983"/>
     <use style="fill:#0173b2;stroke:#1a1a1a;stroke-width:0.5;" x="136.406116" xlink:href="#m73d614afc4" y="148.348562"/>
     <use style="fill:#0173b2;stroke:#1a1a1a;stroke-width:0.5;" x="144.604827" xlink:href="#m73d614afc4" y="113.321963"/>
     <use style="fill:#0173b2;stroke:#1a1a1a;stroke-width:0.5;" x="169.476337" xlink:href="#m73d614afc4" y="117.472176"/>
     <use style="fill:#0173b2;stroke:#1a1a1a;stroke-width:0.5;" x="165.802331" xlink:href="#m73d614afc4" y="78.5278"/>
     <use style="fill:#0173b2;stroke:#1a1a1a;stroke-width:0.5;" x="178.232665" xlink:href="#m73d614afc4" y="105.038261"/>
     <use style="fill:#0173b2;stroke:#1a1a1a;stroke-width:0.5;" x="139.463626" xlink:href="#m73d614afc4" y="59.252433"/>
     <use style="fill:#0173b2;stroke:#1a1a1a;stroke-width:0.5;" x="200.503507" xlink:href="#m73d614afc4" y="153.784148"/>
    </g>
   </g>
   <g id="patch_3">
    <path d="M 41.875891 239.365163 
L 41.875891 39.894194 
" style="fill:none;stroke:#cccccc;stroke-linecap:square;stroke-linejoin:miter;stroke-width:0.6;"/>
   </g>
   <g id="patch_4">
    <path d="M 208.057203 239.365163 
L 208.057203 39.894194 
" style="fill:none;stroke:#cccccc;stroke-linecap:square;stroke-linejoin:miter;stroke-width:0.6;"/>
   </g>
   <g id="patch_5">
    <path d="M 41.875891 239.365163 
L 208.057203 239.365163 
" style="fill:none;stroke:#cccccc;stroke-linecap:square;stroke-linejoin:miter;stroke-width:0.6;"/>
   </g>
   <g id="patch_6">
    <path d="M 41.875891 39.894194 
L 208.057203 39.894194 
" style="fill:none;stroke:#cccccc;stroke-linecap:square;stroke-linejoin:miter;stroke-width:0.6;"/>
   </g>
   <g id="text_11">
    <!-- A -->
    <g style="fill:#262626;" transform="translate(8.639628 12.1575)scale(0.16 -0.16)">
     <defs>
      <path d="M 3419 850 
L 1538 850 
L 1241 0 
L 31 0 
L 1759 4666 
L 3194 4666 
L 4922 0 
L 3713 0 
L 3419 850 
z
M 1838 1716 
L 3116 1716 
L 2478 3572 
L 1838 1716 
z
" id="DejaVuSans-Bold-41" transform="scale(0.015625)"/>
     </defs>
     <use xlink:href="#DejaVuSans-Bold-41"/>
    </g>
   </g>
   <g id="text_12">
    <!-- WT -->
    <g style="fill:#262626;" transform="translate(49.560415 48.770717)scale(0.1 -0.1)">
     <defs>
      <path d="M 213 4666 
L 850 4666 
L 1831 722 
L 2809 4666 
L 3519 4666 
L 4500 722 
L 5478 4666 
L 6119 4666 
L 4947 0 
L 4153 0 
L 3169 4050 
L 2175 0 
L 1381 0 
L 213 4666 
z
" id="DejaVuSans-57" transform="scale(0.015625)"/>
      <path d="M -19 4666 
L 3928 4666 
L 3928 4134 
L 2272 4134 
L 2272 0 
L 1638 0 
L 1638 4134 
L -19 4134 
L -19 4666 
z
" id="DejaVuSans-54" transform="scale(0.015625)"/>
     </defs>
     <use xlink:href="#DejaVuSans-57"/>
     <use x="98.876953" xlink:href="#DejaVuSans-54"/>
    </g>
   </g>
   <g id="text_13">
    <!-- KO -->
    <g style="fill:#262626;" transform="translate(95.701783 229.855332)scale(0.1 -0.1)">
     <defs>
      <path d="M 628 4666 
L 1259 4666 
L 1259 2694 
L 3353 4666 
L 4166 4666 
L 1850 2491 
L 4331 0 
L 3500 0 
L 1259 2247 
L 1259 0 
L 628 0 
L 628 4666 
z
" id="DejaVuSans-4b" transform="scale(0.015625)"/>
      <path d="M 2522 4238 
Q 1834 4238 1429 3725 
Q 1025 3213 1025 2328 
Q 1025 1447 1429 934 
Q 1834 422 2522 422 
Q 3209 422 3611 934 
Q 4013 1447 4013 2328 
Q 4013 3213 3611 3725 
Q 3209 4238 2522 4238 
z
M 2522 4750 
Q 3503 4750 4090 4092 
Q 4678 3434 4678 2328 
Q 4678 1225 4090 567 
Q 3503 -91 2522 -91 
Q 1538 -91 948 565 
Q 359 1222 359 2328 
Q 359 3434 948 4092 
Q 1538 4750 2522 4750 
z
" id="DejaVuSans-4f" transform="scale(0.015625)"/>
     </defs>
     <use xlink:href="#DejaVuSans-4b"/>
     <use x="60.076172" xlink:href="#DejaVuSans-4f"/>
    </g>
   </g>
   <g id="text_14">
    <!-- KD -->
    <g style="fill:#262626;" transform="translate(124.349506 230.107961)scale(0.1 -0.1)">
     <defs>
      <path d="M 1259 4147 
L 1259 519 
L 2022 519 
Q 2988 519 3436 956 
Q 3884 1394 3884 2338 
Q 3884 3275 3436 3711 
Q 2988 4147 2022 4147 
L 1259 4147 
z
M 628 4666 
L 1925 4666 
Q 3281 4666 3915 4102 
Q 4550 3538 4550 2338 
Q 4550 1131 3912 565 
Q 3275 0 1925 0 
L 628 0 
L 628 4666 
z
" id="DejaVuSans-44" transform="scale(0.015625)"/>
     </defs>
     <use xlink:href="#DejaVuSans-4b"/>
     <use x="65.576172" xlink:href="#DejaVuSans-44"/>
    </g>
   </g>
   <g id="text_15">
    <!-- KI -->
    <g style="fill:#262626;" transform="translate(136.536945 148.158223)scale(0.1 -0.1)">
     <defs>
      <path d="M 628 4666 
L 1259 4666 
L 1259 0 
L 628 0 
L 628 4666 
z
" id="DejaVuSans-49" transform="scale(0.015625)"/>
     </defs>
     <use xlink:href="#DejaVuSans-4b"/>
     <use x="65.576172" xlink:href="#DejaVuSans-49"/>
    </g>
   </g>
   <g id="text_16">
    <!-- Y634F -->
    <g style="fill:#262626;" transform="translate(144.735655 113.131623)scale(0.1 -0.1)">
     <defs>
      <path d="M -13 4666 
L 666 4666 
L 1959 2747 
L 3244 4666 
L 3922 4666 
L 2272 2222 
L 2272 0 
L 1638 0 
L 1638 2222 
L -13 4666 
z
" id="DejaVuSans-59" transform="scale(0.015625)"/>
      <path d="M 2113 2584 
Q 1688 2584 1439 2293 
Q 1191 2003 1191 1497 
Q 1191 994 1439 701 
Q 1688 409 2113 409 
Q 2538 409 2786 701 
Q 3034 994 3034 1497 
Q 3034 2003 2786 2293 
Q 2538 2584 2113 2584 
z
M 3366 4563 
L 3366 3988 
Q 3128 4100 2886 4159 
Q 2644 4219 2406 4219 
Q 1781 4219 1451 3797 
Q 1122 3375 1075 2522 
Q 1259 2794 1537 2939 
Q 1816 3084 2150 3084 
Q 2853 3084 3261 2657 
Q 3669 2231 3669 1497 
Q 3669 778 3244 343 
Q 2819 -91 2113 -91 
Q 1303 -91 875 529 
Q 447 1150 447 2328 
Q 447 3434 972 4092 
Q 1497 4750 2381 4750 
Q 2619 4750 2861 4703 
Q 3103 4656 3366 4563 
z
" id="DejaVuSans-36" transform="scale(0.015625)"/>
      <path d="M 628 4666 
L 3309 4666 
L 3309 4134 
L 1259 4134 
L 1259 2759 
L 3109 2759 
L 3109 2228 
L 1259 2228 
L 1259 0 
L 628 0 
L 628 4666 
z
" id="DejaVuSans-46" transform="scale(0.015625)"/>
     </defs>
     <use xlink:href="#DejaVuSans-59"/>
     <use x="61.083984" xlink:href="#DejaVuSans-36"/>
     <use x="124.707031" xlink:href="#DejaVuSans-33"/>
     <use x="188.330078" xlink:href="#DejaVuSans-34"/>
     <use x="251.953125" xlink:href="#DejaVuSans-46"/>
    </g>
   </g>
   <g id="text_17">
    <!-- Y643F -->
    <g style="fill:#262626;" transform="translate(169.607166 117.281837)scale(0.1 -0.1)">
     <use xlink:href="#DejaVuSans-59"/>
     <use x="61.083984" xlink:href="#DejaVuSans-36"/>
     <use x="124.707031" xlink:href="#DejaVuSans-34"/>
     <use x="188.330078" xlink:href="#DejaVuSans-33"/>
     <use x="251.953125" xlink:href="#DejaVuSans-46"/>
    </g>
   </g>
   <g id="text_18">
    <!-- Y698F -->
    <g style="fill:#262626;" transform="translate(165.933159 78.337461)scale(0.1 -0.1)">
     <defs>
      <path d="M 703 97 
L 703 672 
Q 941 559 1184 500 
Q 1428 441 1663 441 
Q 2288 441 2617 861 
Q 2947 1281 2994 2138 
Q 2813 1869 2534 1725 
Q 2256 1581 1919 1581 
Q 1219 1581 811 2004 
Q 403 2428 403 3163 
Q 403 3881 828 4315 
Q 1253 4750 1959 4750 
Q 2769 4750 3195 4129 
Q 3622 3509 3622 2328 
Q 3622 1225 3098 567 
Q 2575 -91 1691 -91 
Q 1453 -91 1209 -44 
Q 966 3 703 97 
z
M 1959 2075 
Q 2384 2075 2632 2365 
Q 2881 2656 2881 3163 
Q 2881 3666 2632 3958 
Q 2384 4250 1959 4250 
Q 1534 4250 1286 3958 
Q 1038 3666 1038 3163 
Q 1038 2656 1286 2365 
Q 1534 2075 1959 2075 
z
" id="DejaVuSans-39" transform="scale(0.015625)"/>
      <path d="M 2034 2216 
Q 1584 2216 1326 1975 
Q 1069 1734 1069 1313 
Q 1069 891 1326 650 
Q 1584 409 2034 409 
Q 2484 409 2743 651 
Q 3003 894 3003 1313 
Q 3003 1734 2745 1975 
Q 2488 2216 2034 2216 
z
M 1403 2484 
Q 997 2584 770 2862 
Q 544 3141 544 3541 
Q 544 4100 942 4425 
Q 1341 4750 2034 4750 
Q 2731 4750 3128 4425 
Q 3525 4100 3525 3541 
Q 3525 3141 3298 2862 
Q 3072 2584 2669 2484 
Q 3125 2378 3379 2068 
Q 3634 1759 3634 1313 
Q 3634 634 3220 271 
Q 2806 -91 2034 -91 
Q 1263 -91 848 271 
Q 434 634 434 1313 
Q 434 1759 690 2068 
Q 947 2378 1403 2484 
z
M 1172 3481 
Q 1172 3119 1398 2916 
Q 1625 2713 2034 2713 
Q 2441 2713 2670 2916 
Q 2900 3119 2900 3481 
Q 2900 3844 2670 4047 
Q 2441 4250 2034 4250 
Q 1625 4250 1398 4047 
Q 1172 3844 1172 3481 
z
" id="DejaVuSans-38" transform="scale(0.015625)"/>
     </defs>
     <use xlink:href="#DejaVuSans-59"/>
     <use x="61.083984" xlink:href="#DejaVuSans-36"/>
     <use x="124.707031" xlink:href="#DejaVuSans-39"/>
     <use x="188.330078" xlink:href="#DejaVuSans-38"/>
     <use x="251.953125" xlink:href="#DejaVuSans-46"/>
    </g>
   </g>
   <g id="text_19">
    <!-- Y726F -->
    <g style="fill:#262626;" transform="translate(178.363493 104.847921)scale(0.1 -0.1)">
     <defs>
      <path d="M 525 4666 
L 3525 4666 
L 3525 4397 
L 1831 0 
L 1172 0 
L 2766 4134 
L 525 4134 
L 525 4666 
z
" id="DejaVuSans-37" transform="scale(0.015625)"/>
     </defs>
     <use xlink:href="#DejaVuSans-59"/>
     <use x="61.083984" xlink:href="#DejaVuSans-37"/>
     <use x="124.707031" xlink:href="#DejaVuSans-32"/>
     <use x="188.330078" xlink:href="#DejaVuSans-36"/>
     <use x="251.953125" xlink:href="#DejaVuSans-46"/>
    </g>
   </g>
   <g id="text_20">
    <!-- Y750F -->
    <g style="fill:#262626;" transform="translate(139.594454 59.062094)scale(0.1 -0.1)">
     <use xlink:href="#DejaVuSans-59"/>
     <use x="61.083984" xlink:href="#DejaVuSans-37"/>
     <use x="124.707031" xlink:href="#DejaVuSans-35"/>
     <use x="188.330078" xlink:href="#DejaVuSans-30"/>
     <use x="251.953125" xlink:href="#DejaVuSans-46"/>
    </g>
   </g>
   <g id="text_21">
    <!-- Y821F -->
    <g style="fill:#262626;" transform="translate(200.634335 153.593809)scale(0.1 -0.1)">
     <use xlink:href="#DejaVuSans-59"/>
     <use x="61.083984" xlink:href="#DejaVuSans-38"/>
     <use x="124.707031" xlink:href="#DejaVuSans-32"/>
     <use x="188.330078" xlink:href="#DejaVuSans-31"/>
     <use x="251.953125" xlink:href="#DejaVuSans-46"/>
    </g>
   </g>
   <g id="text_22">
    <!-- PCA Loadings -->
    <g style="fill:#262626;" transform="translate(76.224797 33.894194)scale(0.144 -0.144)">
     <defs>
      <path d="M 2188 4044 
L 1331 1722 
L 3047 1722 
L 2188 4044 
z
M 1831 4666 
L 2547 4666 
L 4325 0 
L 3669 0 
L 3244 1197 
L 1141 1197 
L 716 0 
L 50 0 
L 1831 4666 
z
" id="DejaVuSans-41" transform="scale(0.015625)"/>
      <path d="M 628 4666 
L 1259 4666 
L 1259 531 
L 3531 531 
L 3531 0 
L 628 0 
L 628 4666 
z
" id="DejaVuSans-4c" transform="scale(0.015625)"/>
      <path d="M 1959 3097 
Q 1497 3097 1228 2736 
Q 959 2375 959 1747 
Q 959 1119 1226 758 
Q 1494 397 1959 397 
Q 2419 397 2687 759 
Q 2956 1122 2956 1747 
Q 2956 2369 2687 2733 
Q 2419 3097 1959 3097 
z
M 1959 3584 
Q 2709 3584 3137 3096 
Q 3566 2609 3566 1747 
Q 3566 888 3137 398 
Q 2709 -91 1959 -91 
Q 1206 -91 779 398 
Q 353 888 353 1747 
Q 353 2609 779 3096 
Q 1206 3584 1959 3584 
z
" id="DejaVuSans-6f" transform="scale(0.015625)"/>
      <path d="M 2194 1759 
Q 1497 1759 1228 1600 
Q 959 1441 959 1056 
Q 959 750 1161 570 
Q 1363 391 1709 391 
Q 2188 391 2477 730 
Q 2766 1069 2766 1631 
L 2766 1759 
L 2194 1759 
z
M 3341 1997 
L 3341 0 
L 2766 0 
L 2766 531 
Q 2569 213 2275 61 
Q 1981 -91 1556 -91 
Q 1019 -91 701 211 
Q 384 513 384 1019 
Q 384 1609 779 1909 
Q 1175 2209 1959 2209 
L 2766 2209 
L 2766 2266 
Q 2766 2663 2505 2880 
Q 2244 3097 1772 3097 
Q 1472 3097 1187 3025 
Q 903 2953 641 2809 
L 641 3341 
Q 956 3463 1253 3523 
Q 1550 3584 1831 3584 
Q 2591 3584 2966 3190 
Q 3341 2797 3341 1997 
z
" id="DejaVuSans-61" transform="scale(0.015625)"/>
      <path d="M 2906 2969 
L 2906 4863 
L 3481 4863 
L 3481 0 
L 2906 0 
L 2906 525 
Q 2725 213 2448 61 
Q 2172 -91 1784 -91 
Q 1150 -91 751 415 
Q 353 922 353 1747 
Q 353 2572 751 3078 
Q 1150 3584 1784 3584 
Q 2172 3584 2448 3432 
Q 2725 3281 2906 2969 
z
M 947 1747 
Q 947 1113 1208 752 
Q 1469 391 1925 391 
Q 2381 391 2643 752 
Q 2906 1113 2906 1747 
Q 2906 2381 2643 2742 
Q 2381 3103 1925 3103 
Q 1469 3103 1208 2742 
Q 947 2381 947 1747 
z
" id="DejaVuSans-64" transform="scale(0.015625)"/>
      <path d="M 603 3500 
L 1178 3500 
L 1178 0 
L 603 0 
L 603 3500 
z
M 603 4863 
L 1178 4863 
L 1178 4134 
L 603 4134 
L 603 4863 
z
" id="DejaVuSans-69" transform="scale(0.015625)"/>
      <path d="M 3513 2113 
L 3513 0 
L 2938 0 
L 2938 2094 
Q 2938 2591 2744 2837 
Q 2550 3084 2163 3084 
Q 1697 3084 1428 2787 
Q 1159 2491 1159 1978 
L 1159 0 
L 581 0 
L 581 3500 
L 1159 3500 
L 1159 2956 
Q 1366 3272 1645 3428 
Q 1925 3584 2291 3584 
Q 2894 3584 3203 3211 
Q 3513 2838 3513 2113 
z
" id="DejaVuSans-6e" transform="scale(0.015625)"/>
      <path d="M 2906 1791 
Q 2906 2416 2648 2759 
Q 2391 3103 1925 3103 
Q 1463 3103 1205 2759 
Q 947 2416 947 1791 
Q 947 1169 1205 825 
Q 1463 481 1925 481 
Q 2391 481 2648 825 
Q 2906 1169 2906 1791 
z
M 3481 434 
Q 3481 -459 3084 -895 
Q 2688 -1331 1869 -1331 
Q 1566 -1331 1297 -1286 
Q 1028 -1241 775 -1147 
L 775 -588 
Q 1028 -725 1275 -790 
Q 1522 -856 1778 -856 
Q 2344 -856 2625 -561 
Q 2906 -266 2906 331 
L 2906 616 
Q 2728 306 2450 153 
Q 2172 0 1784 0 
Q 1141 0 747 490 
Q 353 981 353 1791 
Q 353 2603 747 3093 
Q 1141 3584 1784 3584 
Q 2172 3584 2450 3431 
Q 2728 3278 2906 2969 
L 2906 3500 
L 3481 3500 
L 3481 434 
z
" id="DejaVuSans-67" transform="scale(0.015625)"/>
      <path d="M 2834 3397 
L 2834 2853 
Q 2591 2978 2328 3040 
Q 2066 3103 1784 3103 
Q 1356 3103 1142 2972 
Q 928 2841 928 2578 
Q 928 2378 1081 2264 
Q 1234 2150 1697 2047 
L 1894 2003 
Q 2506 1872 2764 1633 
Q 3022 1394 3022 966 
Q 3022 478 2636 193 
Q 2250 -91 1575 -91 
Q 1294 -91 989 -36 
Q 684 19 347 128 
L 347 722 
Q 666 556 975 473 
Q 1284 391 1588 391 
Q 1994 391 2212 530 
Q 2431 669 2431 922 
Q 2431 1156 2273 1281 
Q 2116 1406 1581 1522 
L 1381 1569 
Q 847 1681 609 1914 
Q 372 2147 372 2553 
Q 372 3047 722 3315 
Q 1072 3584 1716 3584 
Q 2034 3584 2315 3537 
Q 2597 3491 2834 3397 
z
" id="DejaVuSans-73" transform="scale(0.015625)"/>
     </defs>
     <use xlink:href="#DejaVuSans-50"/>
     <use x="60.302734" xlink:href="#DejaVuSans-43"/>
     <use x="130.126953" xlink:href="#DejaVuSans-41"/>
     <use x="198.535156" xlink:href="#DejaVuSans-20"/>
     <use x="230.322266" xlink:href="#DejaVuSans-4c"/>
     <use x="284.285156" xlink:href="#DejaVuSans-6f"/>
     <use x="345.466797" xlink:href="#DejaVuSans-61"/>
     <use x="406.746094" xlink:href="#DejaVuSans-64"/>
     <use x="470.222656" xlink:href="#DejaVuSans-69"/>
     <use x="498.005859" xlink:href="#DejaVuSans-6e"/>
     <use x="561.384766" xlink:href="#DejaVuSans-67"/>
     <use x="624.861328" xlink:href="#DejaVuSans-73"/>
    </g>
   </g>
  </g>
  <g id="axes_2">
   <g id="patch_7">
    <path d="M 270.686877 239.365163 
L 436.868189 239.365163 
L 436.868189 39.894194 
L 270.686877 39.894194 
z
" style="fill:#ffffff;"/>
   </g>
   <g id="matplotlib.axis_3">
    <g id="xtick_4">
     <g id="line2d_9">
      <path clip-path="url(#p7ca80797d1)" d="M 278.240573 239.365163 
L 278.240573 39.894194 
" style="fill:none;stroke:#cccccc;stroke-dasharray:1,1.65;stroke-dashoffset:0;"/>
     </g>
     <g id="text_23">
      <!-- WT -->
      <g style="fill:#262626;" transform="translate(275.388474 261.711304)rotate(-45)scale(0.077 -0.077)">
       <use xlink:href="#DejaVuSans-57"/>
       <use x="98.876953" xlink:href="#DejaVuSans-54"/>
      </g>
     </g>
    </g>
    <g id="xtick_5">
     <g id="line2d_10">
      <path clip-path="url(#p7ca80797d1)" d="M 295.026564 239.365163 
L 295.026564 39.894194 
" style="fill:none;stroke:#cccccc;stroke-dasharray:1,1.65;stroke-dashoffset:0;"/>
     </g>
     <g id="text_24">
      <!-- KO -->
      <g style="fill:#262626;" transform="translate(292.750415 260.559405)rotate(-45)scale(0.077 -0.077)">
       <use xlink:href="#DejaVuSans-4b"/>
       <use x="60.076172" xlink:href="#DejaVuSans-4f"/>
      </g>
     </g>
    </g>
    <g id="xtick_6">
     <g id="line2d_11">
      <path clip-path="url(#p7ca80797d1)" d="M 311.812555 239.365163 
L 311.812555 39.894194 
" style="fill:none;stroke:#cccccc;stroke-dasharray:1,1.65;stroke-dashoffset:0;"/>
     </g>
     <g id="text_25">
      <!-- KD -->
      <g style="fill:#262626;" transform="translate(309.433467 260.765284)rotate(-45)scale(0.077 -0.077)">
       <use xlink:href="#DejaVuSans-4b"/>
       <use x="65.576172" xlink:href="#DejaVuSans-44"/>
      </g>
     </g>
    </g>
    <g id="xtick_7">
     <g id="line2d_12">
      <path clip-path="url(#p7ca80797d1)" d="M 328.598546 239.365163 
L 328.598546 39.894194 
" style="fill:none;stroke:#cccccc;stroke-dasharray:1,1.65;stroke-dashoffset:0;"/>
     </g>
     <g id="text_26">
      <!-- KI -->
      <g style="fill:#262626;" transform="translate(327.512579 258.179041)rotate(-45)scale(0.077 -0.077)">
       <use xlink:href="#DejaVuSans-4b"/>
       <use x="65.576172" xlink:href="#DejaVuSans-49"/>
      </g>
     </g>
    </g>
    <g id="xtick_8">
     <g id="line2d_13">
      <path clip-path="url(#p7ca80797d1)" d="M 345.384537 239.365163 
L 345.384537 39.894194 
" style="fill:none;stroke:#cccccc;stroke-dasharray:1,1.65;stroke-dashoffset:0;"/>
     </g>
     <g id="text_27">
      <!-- Y634F -->
      <g style="fill:#262626;" transform="translate(338.462084 269.852014)rotate(-45)scale(0.077 -0.077)">
       <use xlink:href="#DejaVuSans-59"/>
       <use x="61.083984" xlink:href="#DejaVuSans-36"/>
       <use x="124.707031" xlink:href="#DejaVuSans-33"/>
       <use x="188.330078" xlink:href="#DejaVuSans-34"/>
       <use x="251.953125" xlink:href="#DejaVuSans-46"/>
      </g>
     </g>
    </g>
    <g id="xtick_9">
     <g id="line2d_14">
      <path clip-path="url(#p7ca80797d1)" d="M 362.170529 239.365163 
L 362.170529 39.894194 
" style="fill:none;stroke:#cccccc;stroke-dasharray:1,1.65;stroke-dashoffset:0;"/>
     </g>
     <g id="text_28">
      <!-- Y643F -->
      <g style="fill:#262626;" transform="translate(355.248075 269.852014)rotate(-45)scale(0.077 -0.077)">
       <use xlink:href="#DejaVuSans-59"/>
       <use x="61.083984" xlink:href="#DejaVuSans-36"/>
       <use x="124.707031" xlink:href="#DejaVuSans-34"/>
       <use x="188.330078" xlink:href="#DejaVuSans-33"/>
       <use x="251.953125" xlink:href="#DejaVuSans-46"/>
      </g>
     </g>
    </g>
    <g id="xtick_10">
     <g id="line2d_15">
      <path clip-path="url(#p7ca80797d1)" d="M 378.95652 239.365163 
L 378.95652 39.894194 
" style="fill:none;stroke:#cccccc;stroke-dasharray:1,1.65;stroke-dashoffset:0;"/>
     </g>
     <g id="text_29">
      <!-- Y698F -->
      <g style="fill:#262626;" transform="translate(372.034066 269.852014)rotate(-45)scale(0.077 -0.077)">
       <use xlink:href="#DejaVuSans-59"/>
       <use x="61.083984" xlink:href="#DejaVuSans-36"/>
       <use x="124.707031" xlink:href="#DejaVuSans-39"/>
       <use x="188.330078" xlink:href="#DejaVuSans-38"/>
       <use x="251.953125" xlink:href="#DejaVuSans-46"/>
      </g>
     </g>
    </g>
    <g id="xtick_11">
     <g id="line2d_16">
      <path clip-path="url(#p7ca80797d1)" d="M 395.742511 239.365163 
L 395.742511 39.894194 
" style="fill:none;stroke:#cccccc;stroke-dasharray:1,1.65;stroke-dashoffset:0;"/>
     </g>
     <g id="text_30">
      <!-- Y726F -->
      <g style="fill:#262626;" transform="translate(388.820057 269.852014)rotate(-45)scale(0.077 -0.077)">
       <use xlink:href="#DejaVuSans-59"/>
       <use x="61.083984" xlink:href="#DejaVuSans-37"/>
       <use x="124.707031" xlink:href="#DejaVuSans-32"/>
       <use x="188.330078" xlink:href="#DejaVuSans-36"/>
       <use x="251.953125" xlink:href="#DejaVuSans-46"/>
      </g>
     </g>
    </g>
    <g id="xtick_12">
     <g id="line2d_17">
      <path clip-path="url(#p7ca80797d1)" d="M 412.528502 239.365163 
L 412.528502 39.894194 
" style="fill:none;stroke:#cccccc;stroke-dasharray:1,1.65;stroke-dashoffset:0;"/>
     </g>
     <g id="text_31">
      <!-- Y750F -->
      <g style="fill:#262626;" transform="translate(405.606048 269.852014)rotate(-45)scale(0.077 -0.077)">
       <use xlink:href="#DejaVuSans-59"/>
       <use x="61.083984" xlink:href="#DejaVuSans-37"/>
       <use x="124.707031" xlink:href="#DejaVuSans-35"/>
       <use x="188.330078" xlink:href="#DejaVuSans-30"/>
       <use x="251.953125" xlink:href="#DejaVuSans-46"/>
      </g>
     </g>
    </g>
    <g id="xtick_13">
     <g id="line2d_18">
      <path clip-path="url(#p7ca80797d1)" d="M 429.314493 239.365163 
L 429.314493 39.894194 
" style="fill:none;stroke:#cccccc;stroke-dasharray:1,1.65;stroke-dashoffset:0;"/>
     </g>
     <g id="text_32">
      <!-- Y821F -->
      <g style="fill:#262626;" transform="translate(422.392039 269.852014)rotate(-45)scale(0.077 -0.077)">
       <use xlink:href="#DejaVuSans-59"/>
       <use x="61.083984" xlink:href="#DejaVuSans-38"/>
       <use x="124.707031" xlink:href="#DejaVuSans-32"/>
       <use x="188.330078" xlink:href="#DejaVuSans-31"/>
       <use x="251.953125" xlink:href="#DejaVuSans-46"/>
      </g>
     </g>
    </g>
   </g>
   <g id="matplotlib.axis_4">
    <g id="ytick_6">
     <g id="line2d_19">
      <path clip-path="url(#p7ca80797d1)" d="M 270.686877 239.365163 
L 436.868189 239.365163 
" style="fill:none;stroke:#cccccc;stroke-dasharray:1,1.65;stroke-dashoffset:0;"/>
     </g>
     <g id="text_33">
      <!-- −3 -->
      <g style="fill:#262626;" transform="translate(249.835392 242.290561)scale(0.077 -0.077)">
       <use xlink:href="#DejaVuSans-2212"/>
       <use x="83.789062" xlink:href="#DejaVuSans-33"/>
      </g>
     </g>
    </g>
    <g id="ytick_7">
     <g id="line2d_20">
      <path clip-path="url(#p7ca80797d1)" d="M 270.686877 203.097714 
L 436.868189 203.097714 
" style="fill:none;stroke:#cccccc;stroke-dasharray:1,1.65;stroke-dashoffset:0;"/>
     </g>
     <g id="text_34">
      <!-- −2 -->
      <g style="fill:#262626;" transform="translate(249.835392 206.023112)scale(0.077 -0.077)">
       <use xlink:href="#DejaVuSans-2212"/>
       <use x="83.789062" xlink:href="#DejaVuSans-32"/>
      </g>
     </g>
    </g>
    <g id="ytick_8">
     <g id="line2d_21">
      <path clip-path="url(#p7ca80797d1)" d="M 270.686877 166.830265 
L 436.868189 166.830265 
" style="fill:none;stroke:#cccccc;stroke-dasharray:1,1.65;stroke-dashoffset:0;"/>
     </g>
     <g id="text_35">
      <!-- −1 -->
      <g style="fill:#262626;" transform="translate(249.835392 169.755663)scale(0.077 -0.077)">
       <use xlink:href="#DejaVuSans-2212"/>
       <use x="83.789062" xlink:href="#DejaVuSans-31"/>
      </g>
     </g>
    </g>
    <g id="ytick_9">
     <g id="line2d_22">
      <path clip-path="url(#p7ca80797d1)" d="M 270.686877 130.562816 
L 436.868189 130.562816 
" style="fill:none;stroke:#cccccc;stroke-dasharray:1,1.65;stroke-dashoffset:0;"/>
     </g>
     <g id="text_36">
      <!-- 0 -->
      <g style="fill:#262626;" transform="translate(256.287752 133.488214)scale(0.077 -0.077)">
       <use xlink:href="#DejaVuSans-30"/>
      </g>
     </g>
    </g>
    <g id="ytick_10">
     <g id="line2d_23">
      <path clip-path="url(#p7ca80797d1)" d="M 270.686877 94.295367 
L 436.868189 94.295367 
" style="fill:none;stroke:#cccccc;stroke-dasharray:1,1.65;stroke-dashoffset:0;"/>
     </g>
     <g id="text_37">
      <!-- 1 -->
      <g style="fill:#262626;" transform="translate(256.287752 97.220766)scale(0.077 -0.077)">
       <use xlink:href="#DejaVuSans-31"/>
      </g>
     </g>
    </g>
    <g id="ytick_11">
     <g id="line2d_24">
      <path clip-path="url(#p7ca80797d1)" d="M 270.686877 58.027918 
L 436.868189 58.027918 
" style="fill:none;stroke:#cccccc;stroke-dasharray:1,1.65;stroke-dashoffset:0;"/>
     </g>
     <g id="text_38">
      <!-- 2 -->
      <g style="fill:#262626;" transform="translate(256.287752 60.953317)scale(0.077 -0.077)">
       <use xlink:href="#DejaVuSans-32"/>
      </g>
     </g>
    </g>
    <g id="text_39">
     <!-- $Log2$ (p-site) -->
     <g style="fill:#262626;" transform="translate(244.071392 166.257678)rotate(-90)scale(0.084 -0.084)">
      <defs>
       <path d="M 1075 4666 
L 1709 4666 
L 909 525 
L 3181 525 
L 3078 0 
L 172 0 
L 1075 4666 
z
" id="DejaVuSans-Oblique-4c" transform="scale(0.015625)"/>
       <path d="M 1625 -91 
Q 1009 -91 651 289 
Q 294 669 294 1325 
Q 294 1706 417 2101 
Q 541 2497 738 2766 
Q 1047 3184 1428 3384 
Q 1809 3584 2291 3584 
Q 2888 3584 3255 3212 
Q 3622 2841 3622 2241 
Q 3622 1825 3500 1412 
Q 3378 1000 3181 728 
Q 2875 309 2494 109 
Q 2113 -91 1625 -91 
z
M 891 1344 
Q 891 869 1089 633 
Q 1288 397 1691 397 
Q 2269 397 2648 901 
Q 3028 1406 3028 2181 
Q 3028 2634 2825 2865 
Q 2622 3097 2228 3097 
Q 1903 3097 1650 2945 
Q 1397 2794 1197 2484 
Q 1050 2253 970 1956 
Q 891 1659 891 1344 
z
" id="DejaVuSans-Oblique-6f" transform="scale(0.015625)"/>
       <path d="M 3816 3500 
L 3219 434 
Q 3047 -456 2561 -893 
Q 2075 -1331 1253 -1331 
Q 950 -1331 690 -1286 
Q 431 -1241 206 -1147 
L 313 -588 
Q 525 -725 762 -790 
Q 1000 -856 1269 -856 
Q 1816 -856 2167 -557 
Q 2519 -259 2631 300 
L 2681 563 
Q 2441 288 2122 144 
Q 1803 0 1434 0 
Q 903 0 598 351 
Q 294 703 294 1319 
Q 294 1803 478 2267 
Q 663 2731 997 3091 
Q 1219 3328 1514 3456 
Q 1809 3584 2131 3584 
Q 2484 3584 2746 3420 
Q 3009 3256 3138 2956 
L 3238 3500 
L 3816 3500 
z
M 2950 2216 
Q 2950 2641 2750 2872 
Q 2550 3103 2181 3103 
Q 1953 3103 1747 3012 
Q 1541 2922 1394 2759 
Q 1156 2491 1023 2127 
Q 891 1763 891 1375 
Q 891 944 1092 712 
Q 1294 481 1672 481 
Q 2219 481 2584 976 
Q 2950 1472 2950 2216 
z
" id="DejaVuSans-Oblique-67" transform="scale(0.015625)"/>
       <path d="M 1159 525 
L 1159 -1331 
L 581 -1331 
L 581 3500 
L 1159 3500 
L 1159 2969 
Q 1341 3281 1617 3432 
Q 1894 3584 2278 3584 
Q 2916 3584 3314 3078 
Q 3713 2572 3713 1747 
Q 3713 922 3314 415 
Q 2916 -91 2278 -91 
Q 1894 -91 1617 61 
Q 1341 213 1159 525 
z
M 3116 1747 
Q 3116 2381 2855 2742 
Q 2594 3103 2138 3103 
Q 1681 3103 1420 2742 
Q 1159 2381 1159 1747 
Q 1159 1113 1420 752 
Q 1681 391 2138 391 
Q 2594 391 2855 752 
Q 3116 1113 3116 1747 
z
" id="DejaVuSans-70" transform="scale(0.015625)"/>
       <path d="M 313 2009 
L 1997 2009 
L 1997 1497 
L 313 1497 
L 313 2009 
z
" id="DejaVuSans-2d" transform="scale(0.015625)"/>
       <path d="M 1172 4494 
L 1172 3500 
L 2356 3500 
L 2356 3053 
L 1172 3053 
L 1172 1153 
Q 1172 725 1289 603 
Q 1406 481 1766 481 
L 2356 481 
L 2356 0 
L 1766 0 
Q 1100 0 847 248 
Q 594 497 594 1153 
L 594 3053 
L 172 3053 
L 172 3500 
L 594 3500 
L 594 4494 
L 1172 4494 
z
" id="DejaVuSans-74" transform="scale(0.015625)"/>
       <path d="M 3597 1894 
L 3597 1613 
L 953 1613 
Q 991 1019 1311 708 
Q 1631 397 2203 397 
Q 2534 397 2845 478 
Q 3156 559 3463 722 
L 3463 178 
Q 3153 47 2828 -22 
Q 2503 -91 2169 -91 
Q 1331 -91 842 396 
Q 353 884 353 1716 
Q 353 2575 817 3079 
Q 1281 3584 2069 3584 
Q 2775 3584 3186 3129 
Q 3597 2675 3597 1894 
z
M 3022 2063 
Q 3016 2534 2758 2815 
Q 2500 3097 2075 3097 
Q 1594 3097 1305 2825 
Q 1016 2553 972 2059 
L 3022 2063 
z
" id="DejaVuSans-65" transform="scale(0.015625)"/>
      </defs>
      <use transform="translate(0 0.015625)" xlink:href="#DejaVuSans-Oblique-4c"/>
      <use transform="translate(55.712891 0.015625)" xlink:href="#DejaVuSans-Oblique-6f"/>
      <use transform="translate(116.894531 0.015625)" xlink:href="#DejaVuSans-Oblique-67"/>
      <use transform="translate(180.371094 0.015625)" xlink:href="#DejaVuSans-32"/>
      <use transform="translate(243.994141 0.015625)" xlink:href="#DejaVuSans-20"/>
      <use transform="translate(275.78125 0.015625)" xlink:href="#DejaVuSans-28"/>
      <use transform="translate(314.794922 0.015625)" xlink:href="#DejaVuSans-70"/>
      <use transform="translate(378.271484 0.015625)" xlink:href="#DejaVuSans-2d"/>
      <use transform="translate(414.355469 0.015625)" xlink:href="#DejaVuSans-73"/>
      <use transform="translate(466.455078 0.015625)" xlink:href="#DejaVuSans-69"/>
      <use transform="translate(494.238281 0.015625)" xlink:href="#DejaVuSans-74"/>
      <use transform="translate(533.447266 0.015625)" xlink:href="#DejaVuSans-65"/>
      <use transform="translate(594.970703 0.015625)" xlink:href="#DejaVuSans-29"/>
     </g>
    </g>
   </g>
   <g id="line2d_25">
    <path clip-path="url(#p7ca80797d1)" d="M 278.240573 146.886688 
L 295.026564 180.945223 
L 311.812555 163.440614 
L 328.598546 127.597238 
L 345.384537 113.315744 
L 362.170529 117.074341 
L 378.95652 101.905537 
L 395.742511 82.282239 
L 412.528502 184.435042 
L 429.314493 87.745494 
" style="fill:none;stroke:#8000ff;stroke-linecap:round;stroke-width:1.5;"/>
   </g>
   <g id="line2d_26">
    <path clip-path="url(#p7ca80797d1)" d="M 278.240573 131.465542 
L 295.026564 220.558973 
L 311.812555 193.030037 
L 328.598546 141.561561 
L 345.384537 124.162988 
L 362.170529 119.42103 
L 378.95652 85.325649 
L 395.742511 102.618465 
L 412.528502 93.802922 
L 429.314493 93.680992 
" style="fill:none;stroke:#00b5eb;stroke-linecap:round;stroke-width:1.5;"/>
   </g>
   <g id="line2d_27">
    <path clip-path="url(#p7ca80797d1)" d="M 278.240573 121.198445 
L 295.026564 227.524915 
L 311.812555 235.402555 
L 328.598546 114.546605 
L 345.384537 115.072938 
L 362.170529 77.898615 
L 378.95652 208.928499 
L 395.742511 80.537911 
L 412.528502 59.874254 
L 429.314493 64.643423 
" style="fill:none;stroke:#80ffb4;stroke-linecap:round;stroke-width:1.5;"/>
   </g>
   <g id="line2d_28">
    <path clip-path="url(#p7ca80797d1)" d="M 278.240573 200.144531 
L 295.026564 187.453272 
L 311.812555 159.850782 
L 328.598546 146.203651 
L 345.384537 109.029225 
L 362.170529 119.305045 
L 378.95652 122.322751 
L 395.742511 95.453064 
L 412.528502 80.544044 
L 429.314493 85.321796 
" style="fill:none;stroke:#ffb360;stroke-linecap:round;stroke-width:1.5;"/>
   </g>
   <g id="line2d_29">
    <path clip-path="url(#p7ca80797d1)" d="M 278.240573 152.554342 
L 295.026564 188.985499 
L 311.812555 167.324855 
L 328.598546 132.756398 
L 345.384537 115.550703 
L 362.170529 111.489293 
L 378.95652 55.86202 
L 395.742511 91.350608 
L 412.528502 81.822394 
L 429.314493 207.932048 
" style="fill:none;stroke:#ff0000;stroke-linecap:round;stroke-width:1.5;"/>
   </g>
   <g id="patch_8">
    <path d="M 270.686877 239.365163 
L 270.686877 39.894194 
" style="fill:none;stroke:#cccccc;stroke-linecap:square;stroke-linejoin:miter;stroke-width:0.6;"/>
   </g>
   <g id="patch_9">
    <path d="M 436.868189 239.365163 
L 436.868189 39.894194 
" style="fill:none;stroke:#cccccc;stroke-linecap:square;stroke-linejoin:miter;stroke-width:0.6;"/>
   </g>
   <g id="patch_10">
    <path d="M 270.686877 239.365163 
L 436.868189 239.365163 
" style="fill:none;stroke:#cccccc;stroke-linecap:square;stroke-linejoin:miter;stroke-width:0.6;"/>
   </g>
   <g id="patch_11">
    <path d="M 270.686877 39.894194 
L 436.868189 39.894194 
" style="fill:none;stroke:#cccccc;stroke-linecap:square;stroke-linejoin:miter;stroke-width:0.6;"/>
   </g>
   <g id="text_40">
    <!-- B -->
    <g style="fill:#262626;" transform="translate(237.450614 12.1575)scale(0.16 -0.16)">
     <defs>
      <path d="M 2456 2859 
Q 2741 2859 2887 2984 
Q 3034 3109 3034 3353 
Q 3034 3594 2887 3720 
Q 2741 3847 2456 3847 
L 1791 3847 
L 1791 2859 
L 2456 2859 
z
M 2497 819 
Q 2859 819 3042 972 
Q 3225 1125 3225 1434 
Q 3225 1738 3044 1889 
Q 2863 2041 2497 2041 
L 1791 2041 
L 1791 819 
L 2497 819 
z
M 3616 2497 
Q 4003 2384 4215 2081 
Q 4428 1778 4428 1338 
Q 4428 663 3972 331 
Q 3516 0 2584 0 
L 588 0 
L 588 4666 
L 2394 4666 
Q 3366 4666 3802 4372 
Q 4238 4078 4238 3431 
Q 4238 3091 4078 2852 
Q 3919 2613 3616 2497 
z
" id="DejaVuSans-Bold-42" transform="scale(0.015625)"/>
     </defs>
     <use xlink:href="#DejaVuSans-Bold-42"/>
    </g>
   </g>
   <g id="text_41">
    <!-- AXL -->
    <g style="fill:#262626;" transform="translate(339.908533 33.894194)scale(0.144 -0.144)">
     <defs>
      <path d="M 403 4666 
L 1081 4666 
L 2241 2931 
L 3406 4666 
L 4084 4666 
L 2584 2425 
L 4184 0 
L 3506 0 
L 2194 1984 
L 872 0 
L 191 0 
L 1856 2491 
L 403 4666 
z
" id="DejaVuSans-58" transform="scale(0.015625)"/>
     </defs>
     <use xlink:href="#DejaVuSans-41"/>
     <use x="68.408203" xlink:href="#DejaVuSans-58"/>
     <use x="136.914062" xlink:href="#DejaVuSans-4c"/>
    </g>
   </g>
   <g id="legend_1">
    <g id="patch_12">
     <path d="M 276.286877 105.006694 
L 330.008127 105.006694 
Q 331.608127 105.006694 331.608127 103.406694 
L 331.608127 45.494194 
Q 331.608127 43.894194 330.008127 43.894194 
L 276.286877 43.894194 
Q 274.686877 43.894194 274.686877 45.494194 
L 274.686877 103.406694 
Q 274.686877 105.006694 276.286877 105.006694 
z
" style="fill:#ffffff;opacity:0.8;stroke:#cccccc;stroke-linejoin:miter;"/>
    </g>
    <g id="line2d_30">
     <path d="M 277.886877 50.372944 
L 293.886877 50.372944 
" style="fill:none;stroke:#8000ff;stroke-linecap:round;stroke-width:1.5;"/>
    </g>
    <g id="line2d_31"/>
    <g id="text_42">
     <!-- Y759-p -->
     <g style="fill:#262626;" transform="translate(300.286877 53.172944)scale(0.08 -0.08)">
      <use xlink:href="#DejaVuSans-59"/>
      <use x="61.083984" xlink:href="#DejaVuSans-37"/>
      <use x="124.707031" xlink:href="#DejaVuSans-35"/>
      <use x="188.330078" xlink:href="#DejaVuSans-39"/>
      <use x="251.953125" xlink:href="#DejaVuSans-2d"/>
      <use x="288.037109" xlink:href="#DejaVuSans-70"/>
     </g>
    </g>
    <g id="line2d_32">
     <path d="M 277.886877 62.115444 
L 293.886877 62.115444 
" style="fill:none;stroke:#00b5eb;stroke-linecap:round;stroke-width:1.5;"/>
    </g>
    <g id="line2d_33"/>
    <g id="text_43">
     <!-- Y866-p -->
     <g style="fill:#262626;" transform="translate(300.286877 64.915444)scale(0.08 -0.08)">
      <use xlink:href="#DejaVuSans-59"/>
      <use x="61.083984" xlink:href="#DejaVuSans-38"/>
      <use x="124.707031" xlink:href="#DejaVuSans-36"/>
      <use x="188.330078" xlink:href="#DejaVuSans-36"/>
      <use x="251.953125" xlink:href="#DejaVuSans-2d"/>
      <use x="288.037109" xlink:href="#DejaVuSans-70"/>
     </g>
    </g>
    <g id="line2d_34">
     <path d="M 277.886877 73.857944 
L 293.886877 73.857944 
" style="fill:none;stroke:#80ffb4;stroke-linecap:round;stroke-width:1.5;"/>
    </g>
    <g id="line2d_35"/>
    <g id="text_44">
     <!-- Y702-p -->
     <g style="fill:#262626;" transform="translate(300.286877 76.657944)scale(0.08 -0.08)">
      <use xlink:href="#DejaVuSans-59"/>
      <use x="61.083984" xlink:href="#DejaVuSans-37"/>
      <use x="124.707031" xlink:href="#DejaVuSans-30"/>
      <use x="188.330078" xlink:href="#DejaVuSans-32"/>
      <use x="251.953125" xlink:href="#DejaVuSans-2d"/>
      <use x="288.037109" xlink:href="#DejaVuSans-70"/>
     </g>
    </g>
    <g id="line2d_36">
     <path d="M 277.886877 85.600444 
L 293.886877 85.600444 
" style="fill:none;stroke:#ffb360;stroke-linecap:round;stroke-width:1.5;"/>
    </g>
    <g id="line2d_37"/>
    <g id="text_45">
     <!-- Y481-p -->
     <g style="fill:#262626;" transform="translate(300.286877 88.400444)scale(0.08 -0.08)">
      <use xlink:href="#DejaVuSans-59"/>
      <use x="61.083984" xlink:href="#DejaVuSans-34"/>
      <use x="124.707031" xlink:href="#DejaVuSans-38"/>
      <use x="188.330078" xlink:href="#DejaVuSans-31"/>
      <use x="251.953125" xlink:href="#DejaVuSans-2d"/>
      <use x="288.037109" xlink:href="#DejaVuSans-70"/>
     </g>
    </g>
    <g id="line2d_38">
     <path d="M 277.886877 97.342944 
L 293.886877 97.342944 
" style="fill:none;stroke:#ff0000;stroke-linecap:round;stroke-width:1.5;"/>
    </g>
    <g id="line2d_39"/>
    <g id="text_46">
     <!-- Y821-p -->
     <g style="fill:#262626;" transform="translate(300.286877 100.142944)scale(0.08 -0.08)">
      <use xlink:href="#DejaVuSans-59"/>
      <use x="61.083984" xlink:href="#DejaVuSans-38"/>
      <use x="124.707031" xlink:href="#DejaVuSans-32"/>
      <use x="188.330078" xlink:href="#DejaVuSans-31"/>
      <use x="251.953125" xlink:href="#DejaVuSans-2d"/>
      <use x="288.037109" xlink:href="#DejaVuSans-70"/>
     </g>
    </g>
   </g>
  </g>
  <g id="axes_3">
   <g id="patch_13">
    <path d="M 479.480416 239.365163 
L 645.661728 239.365163 
L 645.661728 39.894194 
L 479.480416 39.894194 
z
" style="fill:#ffffff;"/>
   </g>
   <g id="matplotlib.axis_5">
    <g id="xtick_14">
     <g id="line2d_40">
      <path clip-path="url(#pd6f8113f2f)" d="M 487.034112 239.365163 
L 487.034112 39.894194 
" style="fill:none;stroke:#cccccc;stroke-dasharray:1,1.65;stroke-dashoffset:0;"/>
     </g>
     <g id="text_47">
      <!-- WT -->
      <g style="fill:#262626;" transform="translate(484.182013 261.711304)rotate(-45)scale(0.077 -0.077)">
       <use xlink:href="#DejaVuSans-57"/>
       <use x="98.876953" xlink:href="#DejaVuSans-54"/>
      </g>
     </g>
    </g>
    <g id="xtick_15">
     <g id="line2d_41">
      <path clip-path="url(#pd6f8113f2f)" d="M 503.820103 239.365163 
L 503.820103 39.894194 
" style="fill:none;stroke:#cccccc;stroke-dasharray:1,1.65;stroke-dashoffset:0;"/>
     </g>
     <g id="text_48">
      <!-- KO -->
      <g style="fill:#262626;" transform="translate(501.543954 260.559405)rotate(-45)scale(0.077 -0.077)">
       <use xlink:href="#DejaVuSans-4b"/>
       <use x="60.076172" xlink:href="#DejaVuSans-4f"/>
      </g>
     </g>
    </g>
    <g id="xtick_16">
     <g id="line2d_42">
      <path clip-path="url(#pd6f8113f2f)" d="M 520.606094 239.365163 
L 520.606094 39.894194 
" style="fill:none;stroke:#cccccc;stroke-dasharray:1,1.65;stroke-dashoffset:0;"/>
     </g>
     <g id="text_49">
      <!-- KD -->
      <g style="fill:#262626;" transform="translate(518.227006 260.765284)rotate(-45)scale(0.077 -0.077)">
       <use xlink:href="#DejaVuSans-4b"/>
       <use x="65.576172" xlink:href="#DejaVuSans-44"/>
      </g>
     </g>
    </g>
    <g id="xtick_17">
     <g id="line2d_43">
      <path clip-path="url(#pd6f8113f2f)" d="M 537.392086 239.365163 
L 537.392086 39.894194 
" style="fill:none;stroke:#cccccc;stroke-dasharray:1,1.65;stroke-dashoffset:0;"/>
     </g>
     <g id="text_50">
      <!-- KI -->
      <g style="fill:#262626;" transform="translate(536.306119 258.179041)rotate(-45)scale(0.077 -0.077)">
       <use xlink:href="#DejaVuSans-4b"/>
       <use x="65.576172" xlink:href="#DejaVuSans-49"/>
      </g>
     </g>
    </g>
    <g id="xtick_18">
     <g id="line2d_44">
      <path clip-path="url(#pd6f8113f2f)" d="M 554.178077 239.365163 
L 554.178077 39.894194 
" style="fill:none;stroke:#cccccc;stroke-dasharray:1,1.65;stroke-dashoffset:0;"/>
     </g>
     <g id="text_51">
      <!-- Y634F -->
      <g style="fill:#262626;" transform="translate(547.255623 269.852014)rotate(-45)scale(0.077 -0.077)">
       <use xlink:href="#DejaVuSans-59"/>
       <use x="61.083984" xlink:href="#DejaVuSans-36"/>
       <use x="124.707031" xlink:href="#DejaVuSans-33"/>
       <use x="188.330078" xlink:href="#DejaVuSans-34"/>
       <use x="251.953125" xlink:href="#DejaVuSans-46"/>
      </g>
     </g>
    </g>
    <g id="xtick_19">
     <g id="line2d_45">
      <path clip-path="url(#pd6f8113f2f)" d="M 570.964068 239.365163 
L 570.964068 39.894194 
" style="fill:none;stroke:#cccccc;stroke-dasharray:1,1.65;stroke-dashoffset:0;"/>
     </g>
     <g id="text_52">
      <!-- Y643F -->
      <g style="fill:#262626;" transform="translate(564.041614 269.852014)rotate(-45)scale(0.077 -0.077)">
       <use xlink:href="#DejaVuSans-59"/>
       <use x="61.083984" xlink:href="#DejaVuSans-36"/>
       <use x="124.707031" xlink:href="#DejaVuSans-34"/>
       <use x="188.330078" xlink:href="#DejaVuSans-33"/>
       <use x="251.953125" xlink:href="#DejaVuSans-46"/>
      </g>
     </g>
    </g>
    <g id="xtick_20">
     <g id="line2d_46">
      <path clip-path="url(#pd6f8113f2f)" d="M 587.750059 239.365163 
L 587.750059 39.894194 
" style="fill:none;stroke:#cccccc;stroke-dasharray:1,1.65;stroke-dashoffset:0;"/>
     </g>
     <g id="text_53">
      <!-- Y698F -->
      <g style="fill:#262626;" transform="translate(580.827605 269.852014)rotate(-45)scale(0.077 -0.077)">
       <use xlink:href="#DejaVuSans-59"/>
       <use x="61.083984" xlink:href="#DejaVuSans-36"/>
       <use x="124.707031" xlink:href="#DejaVuSans-39"/>
       <use x="188.330078" xlink:href="#DejaVuSans-38"/>
       <use x="251.953125" xlink:href="#DejaVuSans-46"/>
      </g>
     </g>
    </g>
    <g id="xtick_21">
     <g id="line2d_47">
      <path clip-path="url(#pd6f8113f2f)" d="M 604.53605 239.365163 
L 604.53605 39.894194 
" style="fill:none;stroke:#cccccc;stroke-dasharray:1,1.65;stroke-dashoffset:0;"/>
     </g>
     <g id="text_54">
      <!-- Y726F -->
      <g style="fill:#262626;" transform="translate(597.613596 269.852014)rotate(-45)scale(0.077 -0.077)">
       <use xlink:href="#DejaVuSans-59"/>
       <use x="61.083984" xlink:href="#DejaVuSans-37"/>
       <use x="124.707031" xlink:href="#DejaVuSans-32"/>
       <use x="188.330078" xlink:href="#DejaVuSans-36"/>
       <use x="251.953125" xlink:href="#DejaVuSans-46"/>
      </g>
     </g>
    </g>
    <g id="xtick_22">
     <g id="line2d_48">
      <path clip-path="url(#pd6f8113f2f)" d="M 621.322041 239.365163 
L 621.322041 39.894194 
" style="fill:none;stroke:#cccccc;stroke-dasharray:1,1.65;stroke-dashoffset:0;"/>
     </g>
     <g id="text_55">
      <!-- Y750F -->
      <g style="fill:#262626;" transform="translate(614.399587 269.852014)rotate(-45)scale(0.077 -0.077)">
       <use xlink:href="#DejaVuSans-59"/>
       <use x="61.083984" xlink:href="#DejaVuSans-37"/>
       <use x="124.707031" xlink:href="#DejaVuSans-35"/>
       <use x="188.330078" xlink:href="#DejaVuSans-30"/>
       <use x="251.953125" xlink:href="#DejaVuSans-46"/>
      </g>
     </g>
    </g>
    <g id="xtick_23">
     <g id="line2d_49">
      <path clip-path="url(#pd6f8113f2f)" d="M 638.108032 239.365163 
L 638.108032 39.894194 
" style="fill:none;stroke:#cccccc;stroke-dasharray:1,1.65;stroke-dashoffset:0;"/>
     </g>
     <g id="text_56">
      <!-- Y821F -->
      <g style="fill:#262626;" transform="translate(631.185579 269.852014)rotate(-45)scale(0.077 -0.077)">
       <use xlink:href="#DejaVuSans-59"/>
       <use x="61.083984" xlink:href="#DejaVuSans-38"/>
       <use x="124.707031" xlink:href="#DejaVuSans-32"/>
       <use x="188.330078" xlink:href="#DejaVuSans-31"/>
       <use x="251.953125" xlink:href="#DejaVuSans-46"/>
      </g>
     </g>
    </g>
   </g>
   <g id="matplotlib.axis_6">
    <g id="ytick_12">
     <g id="line2d_50">
      <path clip-path="url(#pd6f8113f2f)" d="M 479.480416 239.365163 
L 645.661728 239.365163 
" style="fill:none;stroke:#cccccc;stroke-dasharray:1,1.65;stroke-dashoffset:0;"/>
     </g>
     <g id="text_57">
      <!-- −3 -->
      <g style="fill:#262626;" transform="translate(458.628932 242.290561)scale(0.077 -0.077)">
       <use xlink:href="#DejaVuSans-2212"/>
       <use x="83.789062" xlink:href="#DejaVuSans-33"/>
      </g>
     </g>
    </g>
    <g id="ytick_13">
     <g id="line2d_51">
      <path clip-path="url(#pd6f8113f2f)" d="M 479.480416 203.097714 
L 645.661728 203.097714 
" style="fill:none;stroke:#cccccc;stroke-dasharray:1,1.65;stroke-dashoffset:0;"/>
     </g>
     <g id="text_58">
      <!-- −2 -->
      <g style="fill:#262626;" transform="translate(458.628932 206.023112)scale(0.077 -0.077)">
       <use xlink:href="#DejaVuSans-2212"/>
       <use x="83.789062" xlink:href="#DejaVuSans-32"/>
      </g>
     </g>
    </g>
    <g id="ytick_14">
     <g id="line2d_52">
      <path clip-path="url(#pd6f8113f2f)" d="M 479.480416 166.830265 
L 645.661728 166.830265 
" style="fill:none;stroke:#cccccc;stroke-dasharray:1,1.65;stroke-dashoffset:0;"/>
     </g>
     <g id="text_59">
      <!-- −1 -->
      <g style="fill:#262626;" transform="translate(458.628932 169.755663)scale(0.077 -0.077)">
       <use xlink:href="#DejaVuSans-2212"/>
       <use x="83.789062" xlink:href="#DejaVuSans-31"/>
      </g>
     </g>
    </g>
    <g id="ytick_15">
     <g id="line2d_53">
      <path clip-path="url(#pd6f8113f2f)" d="M 479.480416 130.562816 
L 645.661728 130.562816 
" style="fill:none;stroke:#cccccc;stroke-dasharray:1,1.65;stroke-dashoffset:0;"/>
     </g>
     <g id="text_60">
      <!-- 0 -->
      <g style="fill:#262626;" transform="translate(465.081291 133.488214)scale(0.077 -0.077)">
       <use xlink:href="#DejaVuSans-30"/>
      </g>
     </g>
    </g>
    <g id="ytick_16">
     <g id="line2d_54">
      <path clip-path="url(#pd6f8113f2f)" d="M 479.480416 94.295367 
L 645.661728 94.295367 
" style="fill:none;stroke:#cccccc;stroke-dasharray:1,1.65;stroke-dashoffset:0;"/>
     </g>
     <g id="text_61">
      <!-- 1 -->
      <g style="fill:#262626;" transform="translate(465.081291 97.220766)scale(0.077 -0.077)">
       <use xlink:href="#DejaVuSans-31"/>
      </g>
     </g>
    </g>
    <g id="ytick_17">
     <g id="line2d_55">
      <path clip-path="url(#pd6f8113f2f)" d="M 479.480416 58.027918 
L 645.661728 58.027918 
" style="fill:none;stroke:#cccccc;stroke-dasharray:1,1.65;stroke-dashoffset:0;"/>
     </g>
     <g id="text_62">
      <!-- 2 -->
      <g style="fill:#262626;" transform="translate(465.081291 60.953317)scale(0.077 -0.077)">
       <use xlink:href="#DejaVuSans-32"/>
      </g>
     </g>
    </g>
    <g id="text_63">
     <!-- $Log2$ (p-site) -->
     <g style="fill:#262626;" transform="translate(452.864932 166.257678)rotate(-90)scale(0.084 -0.084)">
      <use transform="translate(0 0.015625)" xlink:href="#DejaVuSans-Oblique-4c"/>
      <use transform="translate(55.712891 0.015625)" xlink:href="#DejaVuSans-Oblique-6f"/>
      <use transform="translate(116.894531 0.015625)" xlink:href="#DejaVuSans-Oblique-67"/>
      <use transform="translate(180.371094 0.015625)" xlink:href="#DejaVuSans-32"/>
      <use transform="translate(243.994141 0.015625)" xlink:href="#DejaVuSans-20"/>
      <use transform="translate(275.78125 0.015625)" xlink:href="#DejaVuSans-28"/>
      <use transform="translate(314.794922 0.015625)" xlink:href="#DejaVuSans-70"/>
      <use transform="translate(378.271484 0.015625)" xlink:href="#DejaVuSans-2d"/>
      <use transform="translate(414.355469 0.015625)" xlink:href="#DejaVuSans-73"/>
      <use transform="translate(466.455078 0.015625)" xlink:href="#DejaVuSans-69"/>
      <use transform="translate(494.238281 0.015625)" xlink:href="#DejaVuSans-74"/>
      <use transform="translate(533.447266 0.015625)" xlink:href="#DejaVuSans-65"/>
      <use transform="translate(594.970703 0.015625)" xlink:href="#DejaVuSans-29"/>
     </g>
    </g>
   </g>
   <g id="line2d_56">
    <path clip-path="url(#pd6f8113f2f)" d="M 487.034112 110.618172 
L 503.820103 123.82734 
L 520.606094 132.408658 
L 537.392086 134.101101 
L 554.178077 138.570077 
L 570.964068 131.938583 
L 587.750059 136.469825 
L 604.53605 132.307137 
L 621.322041 127.747365 
L 638.108032 137.639903 
" style="fill:none;stroke:#8000ff;stroke-linecap:round;stroke-width:1.5;"/>
   </g>
   <g id="line2d_57">
    <path clip-path="url(#pd6f8113f2f)" d="M 487.034112 132.929557 
L 503.820103 121.999284 
L 520.606094 131.089777 
L 537.392086 125.479627 
L 554.178077 133.639963 
L 570.964068 131.738535 
L 587.750059 127.26476 
L 604.53605 134.340449 
L 621.322041 133.003356 
L 638.108032 134.142853 
" style="fill:none;stroke:#ff0000;stroke-linecap:round;stroke-width:1.5;"/>
   </g>
   <g id="patch_14">
    <path d="M 479.480416 239.365163 
L 479.480416 39.894194 
" style="fill:none;stroke:#cccccc;stroke-linecap:square;stroke-linejoin:miter;stroke-width:0.6;"/>
   </g>
   <g id="patch_15">
    <path d="M 645.661728 239.365163 
L 645.661728 39.894194 
" style="fill:none;stroke:#cccccc;stroke-linecap:square;stroke-linejoin:miter;stroke-width:0.6;"/>
   </g>
   <g id="patch_16">
    <path d="M 479.480416 239.365163 
L 645.661728 239.365163 
" style="fill:none;stroke:#cccccc;stroke-linecap:square;stroke-linejoin:miter;stroke-width:0.6;"/>
   </g>
   <g id="patch_17">
    <path d="M 479.480416 39.894194 
L 645.661728 39.894194 
" style="fill:none;stroke:#cccccc;stroke-linecap:square;stroke-linejoin:miter;stroke-width:0.6;"/>
   </g>
   <g id="text_64">
    <!-- C -->
    <g style="fill:#262626;" transform="translate(446.244154 12.1575)scale(0.16 -0.16)">
     <defs>
      <path d="M 4288 256 
Q 3956 84 3597 -3 
Q 3238 -91 2847 -91 
Q 1681 -91 1000 561 
Q 319 1213 319 2328 
Q 319 3447 1000 4098 
Q 1681 4750 2847 4750 
Q 3238 4750 3597 4662 
Q 3956 4575 4288 4403 
L 4288 3438 
Q 3953 3666 3628 3772 
Q 3303 3878 2944 3878 
Q 2300 3878 1931 3465 
Q 1563 3053 1563 2328 
Q 1563 1606 1931 1193 
Q 2300 781 2944 781 
Q 3303 781 3628 887 
Q 3953 994 4288 1222 
L 4288 256 
z
" id="DejaVuSans-Bold-43" transform="scale(0.015625)"/>
     </defs>
     <use xlink:href="#DejaVuSans-Bold-43"/>
    </g>
   </g>
   <g id="text_65">
    <!-- EGFR -->
    <g style="fill:#262626;" transform="translate(543.298697 33.894194)scale(0.144 -0.144)">
     <defs>
      <path d="M 628 4666 
L 3578 4666 
L 3578 4134 
L 1259 4134 
L 1259 2753 
L 3481 2753 
L 3481 2222 
L 1259 2222 
L 1259 531 
L 3634 531 
L 3634 0 
L 628 0 
L 628 4666 
z
" id="DejaVuSans-45" transform="scale(0.015625)"/>
      <path d="M 3809 666 
L 3809 1919 
L 2778 1919 
L 2778 2438 
L 4434 2438 
L 4434 434 
Q 4069 175 3628 42 
Q 3188 -91 2688 -91 
Q 1594 -91 976 548 
Q 359 1188 359 2328 
Q 359 3472 976 4111 
Q 1594 4750 2688 4750 
Q 3144 4750 3555 4637 
Q 3966 4525 4313 4306 
L 4313 3634 
Q 3963 3931 3569 4081 
Q 3175 4231 2741 4231 
Q 1884 4231 1454 3753 
Q 1025 3275 1025 2328 
Q 1025 1384 1454 906 
Q 1884 428 2741 428 
Q 3075 428 3337 486 
Q 3600 544 3809 666 
z
" id="DejaVuSans-47" transform="scale(0.015625)"/>
      <path d="M 2841 2188 
Q 3044 2119 3236 1894 
Q 3428 1669 3622 1275 
L 4263 0 
L 3584 0 
L 2988 1197 
Q 2756 1666 2539 1819 
Q 2322 1972 1947 1972 
L 1259 1972 
L 1259 0 
L 628 0 
L 628 4666 
L 2053 4666 
Q 2853 4666 3247 4331 
Q 3641 3997 3641 3322 
Q 3641 2881 3436 2590 
Q 3231 2300 2841 2188 
z
M 1259 4147 
L 1259 2491 
L 2053 2491 
Q 2509 2491 2742 2702 
Q 2975 2913 2975 3322 
Q 2975 3731 2742 3939 
Q 2509 4147 2053 4147 
L 1259 4147 
z
" id="DejaVuSans-52" transform="scale(0.015625)"/>
     </defs>
     <use xlink:href="#DejaVuSans-45"/>
     <use x="63.183594" xlink:href="#DejaVuSans-47"/>
     <use x="140.673828" xlink:href="#DejaVuSans-46"/>
     <use x="198.193359" xlink:href="#DejaVuSans-52"/>
    </g>
   </g>
   <g id="legend_2">
    <g id="patch_18">
     <path d="M 581.250478 69.779194 
L 640.061728 69.779194 
Q 641.661728 69.779194 641.661728 68.179194 
L 641.661728 45.494194 
Q 641.661728 43.894194 640.061728 43.894194 
L 581.250478 43.894194 
Q 579.650478 43.894194 579.650478 45.494194 
L 579.650478 68.179194 
Q 579.650478 69.779194 581.250478 69.779194 
z
" style="fill:#ffffff;opacity:0.8;stroke:#cccccc;stroke-linejoin:miter;"/>
    </g>
    <g id="line2d_58">
     <path d="M 582.850478 50.372944 
L 598.850478 50.372944 
" style="fill:none;stroke:#8000ff;stroke-linecap:round;stroke-width:1.5;"/>
    </g>
    <g id="line2d_59"/>
    <g id="text_66">
     <!-- Y1197-p -->
     <g style="fill:#262626;" transform="translate(605.250478 53.172944)scale(0.08 -0.08)">
      <use xlink:href="#DejaVuSans-59"/>
      <use x="61.083984" xlink:href="#DejaVuSans-31"/>
      <use x="124.707031" xlink:href="#DejaVuSans-31"/>
      <use x="188.330078" xlink:href="#DejaVuSans-39"/>
      <use x="251.953125" xlink:href="#DejaVuSans-37"/>
      <use x="315.576172" xlink:href="#DejaVuSans-2d"/>
      <use x="351.660156" xlink:href="#DejaVuSans-70"/>
     </g>
    </g>
    <g id="line2d_60">
     <path d="M 582.850478 62.115444 
L 598.850478 62.115444 
" style="fill:none;stroke:#ff0000;stroke-linecap:round;stroke-width:1.5;"/>
    </g>
    <g id="line2d_61"/>
    <g id="text_67">
     <!-- Y1172-p -->
     <g style="fill:#262626;" transform="translate(605.250478 64.915444)scale(0.08 -0.08)">
      <use xlink:href="#DejaVuSans-59"/>
      <use x="61.083984" xlink:href="#DejaVuSans-31"/>
      <use x="124.707031" xlink:href="#DejaVuSans-31"/>
      <use x="188.330078" xlink:href="#DejaVuSans-37"/>
      <use x="251.953125" xlink:href="#DejaVuSans-32"/>
      <use x="315.576172" xlink:href="#DejaVuSans-2d"/>
      <use x="351.660156" xlink:href="#DejaVuSans-70"/>
     </g>
    </g>
   </g>
  </g>
  <g id="axes_4">
   <g id="patch_19">
    <path d="M 688.273955 239.365163 
L 854.455268 239.365163 
L 854.455268 39.894194 
L 688.273955 39.894194 
z
" style="fill:#ffffff;"/>
   </g>
   <g id="matplotlib.axis_7">
    <g id="xtick_24">
     <g id="line2d_62">
      <path clip-path="url(#p8f9463a699)" d="M 695.827651 239.365163 
L 695.827651 39.894194 
" style="fill:none;stroke:#cccccc;stroke-dasharray:1,1.65;stroke-dashoffset:0;"/>
     </g>
     <g id="text_68">
      <!-- WT -->
      <g style="fill:#262626;" transform="translate(692.975553 261.711304)rotate(-45)scale(0.077 -0.077)">
       <use xlink:href="#DejaVuSans-57"/>
       <use x="98.876953" xlink:href="#DejaVuSans-54"/>
      </g>
     </g>
    </g>
    <g id="xtick_25">
     <g id="line2d_63">
      <path clip-path="url(#p8f9463a699)" d="M 712.613642 239.365163 
L 712.613642 39.894194 
" style="fill:none;stroke:#cccccc;stroke-dasharray:1,1.65;stroke-dashoffset:0;"/>
     </g>
     <g id="text_69">
      <!-- KO -->
      <g style="fill:#262626;" transform="translate(710.337493 260.559405)rotate(-45)scale(0.077 -0.077)">
       <use xlink:href="#DejaVuSans-4b"/>
       <use x="60.076172" xlink:href="#DejaVuSans-4f"/>
      </g>
     </g>
    </g>
    <g id="xtick_26">
     <g id="line2d_64">
      <path clip-path="url(#p8f9463a699)" d="M 729.399634 239.365163 
L 729.399634 39.894194 
" style="fill:none;stroke:#cccccc;stroke-dasharray:1,1.65;stroke-dashoffset:0;"/>
     </g>
     <g id="text_70">
      <!-- KD -->
      <g style="fill:#262626;" transform="translate(727.020545 260.765284)rotate(-45)scale(0.077 -0.077)">
       <use xlink:href="#DejaVuSans-4b"/>
       <use x="65.576172" xlink:href="#DejaVuSans-44"/>
      </g>
     </g>
    </g>
    <g id="xtick_27">
     <g id="line2d_65">
      <path clip-path="url(#p8f9463a699)" d="M 746.185625 239.365163 
L 746.185625 39.894194 
" style="fill:none;stroke:#cccccc;stroke-dasharray:1,1.65;stroke-dashoffset:0;"/>
     </g>
     <g id="text_71">
      <!-- KI -->
      <g style="fill:#262626;" transform="translate(745.099658 258.179041)rotate(-45)scale(0.077 -0.077)">
       <use xlink:href="#DejaVuSans-4b"/>
       <use x="65.576172" xlink:href="#DejaVuSans-49"/>
      </g>
     </g>
    </g>
    <g id="xtick_28">
     <g id="line2d_66">
      <path clip-path="url(#p8f9463a699)" d="M 762.971616 239.365163 
L 762.971616 39.894194 
" style="fill:none;stroke:#cccccc;stroke-dasharray:1,1.65;stroke-dashoffset:0;"/>
     </g>
     <g id="text_72">
      <!-- Y634F -->
      <g style="fill:#262626;" transform="translate(756.049162 269.852014)rotate(-45)scale(0.077 -0.077)">
       <use xlink:href="#DejaVuSans-59"/>
       <use x="61.083984" xlink:href="#DejaVuSans-36"/>
       <use x="124.707031" xlink:href="#DejaVuSans-33"/>
       <use x="188.330078" xlink:href="#DejaVuSans-34"/>
       <use x="251.953125" xlink:href="#DejaVuSans-46"/>
      </g>
     </g>
    </g>
    <g id="xtick_29">
     <g id="line2d_67">
      <path clip-path="url(#p8f9463a699)" d="M 779.757607 239.365163 
L 779.757607 39.894194 
" style="fill:none;stroke:#cccccc;stroke-dasharray:1,1.65;stroke-dashoffset:0;"/>
     </g>
     <g id="text_73">
      <!-- Y643F -->
      <g style="fill:#262626;" transform="translate(772.835153 269.852014)rotate(-45)scale(0.077 -0.077)">
       <use xlink:href="#DejaVuSans-59"/>
       <use x="61.083984" xlink:href="#DejaVuSans-36"/>
       <use x="124.707031" xlink:href="#DejaVuSans-34"/>
       <use x="188.330078" xlink:href="#DejaVuSans-33"/>
       <use x="251.953125" xlink:href="#DejaVuSans-46"/>
      </g>
     </g>
    </g>
    <g id="xtick_30">
     <g id="line2d_68">
      <path clip-path="url(#p8f9463a699)" d="M 796.543598 239.365163 
L 796.543598 39.894194 
" style="fill:none;stroke:#cccccc;stroke-dasharray:1,1.65;stroke-dashoffset:0;"/>
     </g>
     <g id="text_74">
      <!-- Y698F -->
      <g style="fill:#262626;" transform="translate(789.621144 269.852014)rotate(-45)scale(0.077 -0.077)">
       <use xlink:href="#DejaVuSans-59"/>
       <use x="61.083984" xlink:href="#DejaVuSans-36"/>
       <use x="124.707031" xlink:href="#DejaVuSans-39"/>
       <use x="188.330078" xlink:href="#DejaVuSans-38"/>
       <use x="251.953125" xlink:href="#DejaVuSans-46"/>
      </g>
     </g>
    </g>
    <g id="xtick_31">
     <g id="line2d_69">
      <path clip-path="url(#p8f9463a699)" d="M 813.329589 239.365163 
L 813.329589 39.894194 
" style="fill:none;stroke:#cccccc;stroke-dasharray:1,1.65;stroke-dashoffset:0;"/>
     </g>
     <g id="text_75">
      <!-- Y726F -->
      <g style="fill:#262626;" transform="translate(806.407135 269.852014)rotate(-45)scale(0.077 -0.077)">
       <use xlink:href="#DejaVuSans-59"/>
       <use x="61.083984" xlink:href="#DejaVuSans-37"/>
       <use x="124.707031" xlink:href="#DejaVuSans-32"/>
       <use x="188.330078" xlink:href="#DejaVuSans-36"/>
       <use x="251.953125" xlink:href="#DejaVuSans-46"/>
      </g>
     </g>
    </g>
    <g id="xtick_32">
     <g id="line2d_70">
      <path clip-path="url(#p8f9463a699)" d="M 830.11558 239.365163 
L 830.11558 39.894194 
" style="fill:none;stroke:#cccccc;stroke-dasharray:1,1.65;stroke-dashoffset:0;"/>
     </g>
     <g id="text_76">
      <!-- Y750F -->
      <g style="fill:#262626;" transform="translate(823.193127 269.852014)rotate(-45)scale(0.077 -0.077)">
       <use xlink:href="#DejaVuSans-59"/>
       <use x="61.083984" xlink:href="#DejaVuSans-37"/>
       <use x="124.707031" xlink:href="#DejaVuSans-35"/>
       <use x="188.330078" xlink:href="#DejaVuSans-30"/>
       <use x="251.953125" xlink:href="#DejaVuSans-46"/>
      </g>
     </g>
    </g>
    <g id="xtick_33">
     <g id="line2d_71">
      <path clip-path="url(#p8f9463a699)" d="M 846.901572 239.365163 
L 846.901572 39.894194 
" style="fill:none;stroke:#cccccc;stroke-dasharray:1,1.65;stroke-dashoffset:0;"/>
     </g>
     <g id="text_77">
      <!-- Y821F -->
      <g style="fill:#262626;" transform="translate(839.979118 269.852014)rotate(-45)scale(0.077 -0.077)">
       <use xlink:href="#DejaVuSans-59"/>
       <use x="61.083984" xlink:href="#DejaVuSans-38"/>
       <use x="124.707031" xlink:href="#DejaVuSans-32"/>
       <use x="188.330078" xlink:href="#DejaVuSans-31"/>
       <use x="251.953125" xlink:href="#DejaVuSans-46"/>
      </g>
     </g>
    </g>
    <g id="text_78">
     <!-- Line -->
     <g style="fill:#262626;" transform="translate(762.611549 281.367034)scale(0.084 -0.084)">
      <use xlink:href="#DejaVuSans-4c"/>
      <use x="55.712891" xlink:href="#DejaVuSans-69"/>
      <use x="83.496094" xlink:href="#DejaVuSans-6e"/>
      <use x="146.875" xlink:href="#DejaVuSans-65"/>
     </g>
    </g>
   </g>
   <g id="matplotlib.axis_8">
    <g id="ytick_18">
     <g id="line2d_72">
      <path clip-path="url(#p8f9463a699)" d="M 688.273955 239.365163 
L 854.455268 239.365163 
" style="fill:none;stroke:#cccccc;stroke-dasharray:1,1.65;stroke-dashoffset:0;"/>
     </g>
     <g id="text_79">
      <!-- −3 -->
      <g style="fill:#262626;" transform="translate(667.422471 242.290561)scale(0.077 -0.077)">
       <use xlink:href="#DejaVuSans-2212"/>
       <use x="83.789062" xlink:href="#DejaVuSans-33"/>
      </g>
     </g>
    </g>
    <g id="ytick_19">
     <g id="line2d_73">
      <path clip-path="url(#p8f9463a699)" d="M 688.273955 203.097714 
L 854.455268 203.097714 
" style="fill:none;stroke:#cccccc;stroke-dasharray:1,1.65;stroke-dashoffset:0;"/>
     </g>
     <g id="text_80">
      <!-- −2 -->
      <g style="fill:#262626;" transform="translate(667.422471 206.023112)scale(0.077 -0.077)">
       <use xlink:href="#DejaVuSans-2212"/>
       <use x="83.789062" xlink:href="#DejaVuSans-32"/>
      </g>
     </g>
    </g>
    <g id="ytick_20">
     <g id="line2d_74">
      <path clip-path="url(#p8f9463a699)" d="M 688.273955 166.830265 
L 854.455268 166.830265 
" style="fill:none;stroke:#cccccc;stroke-dasharray:1,1.65;stroke-dashoffset:0;"/>
     </g>
     <g id="text_81">
      <!-- −1 -->
      <g style="fill:#262626;" transform="translate(667.422471 169.755663)scale(0.077 -0.077)">
       <use xlink:href="#DejaVuSans-2212"/>
       <use x="83.789062" xlink:href="#DejaVuSans-31"/>
      </g>
     </g>
    </g>
    <g id="ytick_21">
     <g id="line2d_75">
      <path clip-path="url(#p8f9463a699)" d="M 688.273955 130.562816 
L 854.455268 130.562816 
" style="fill:none;stroke:#cccccc;stroke-dasharray:1,1.65;stroke-dashoffset:0;"/>
     </g>
     <g id="text_82">
      <!-- 0 -->
      <g style="fill:#262626;" transform="translate(673.87483 133.488214)scale(0.077 -0.077)">
       <use xlink:href="#DejaVuSans-30"/>
      </g>
     </g>
    </g>
    <g id="ytick_22">
     <g id="line2d_76">
      <path clip-path="url(#p8f9463a699)" d="M 688.273955 94.295367 
L 854.455268 94.295367 
" style="fill:none;stroke:#cccccc;stroke-dasharray:1,1.65;stroke-dashoffset:0;"/>
     </g>
     <g id="text_83">
      <!-- 1 -->
      <g style="fill:#262626;" transform="translate(673.87483 97.220766)scale(0.077 -0.077)">
       <use xlink:href="#DejaVuSans-31"/>
      </g>
     </g>
    </g>
    <g id="ytick_23">
     <g id="line2d_77">
      <path clip-path="url(#p8f9463a699)" d="M 688.273955 58.027918 
L 854.455268 58.027918 
" style="fill:none;stroke:#cccccc;stroke-dasharray:1,1.65;stroke-dashoffset:0;"/>
     </g>
     <g id="text_84">
      <!-- 2 -->
      <g style="fill:#262626;" transform="translate(673.87483 60.953317)scale(0.077 -0.077)">
       <use xlink:href="#DejaVuSans-32"/>
      </g>
     </g>
    </g>
    <g id="text_85">
     <!-- $Log2$ (p-site) -->
     <g style="fill:#262626;" transform="translate(661.658471 166.257678)rotate(-90)scale(0.084 -0.084)">
      <use transform="translate(0 0.015625)" xlink:href="#DejaVuSans-Oblique-4c"/>
      <use transform="translate(55.712891 0.015625)" xlink:href="#DejaVuSans-Oblique-6f"/>
      <use transform="translate(116.894531 0.015625)" xlink:href="#DejaVuSans-Oblique-67"/>
      <use transform="translate(180.371094 0.015625)" xlink:href="#DejaVuSans-32"/>
      <use transform="translate(243.994141 0.015625)" xlink:href="#DejaVuSans-20"/>
      <use transform="translate(275.78125 0.015625)" xlink:href="#DejaVuSans-28"/>
      <use transform="translate(314.794922 0.015625)" xlink:href="#DejaVuSans-70"/>
      <use transform="translate(378.271484 0.015625)" xlink:href="#DejaVuSans-2d"/>
      <use transform="translate(414.355469 0.015625)" xlink:href="#DejaVuSans-73"/>
      <use transform="translate(466.455078 0.015625)" xlink:href="#DejaVuSans-69"/>
      <use transform="translate(494.238281 0.015625)" xlink:href="#DejaVuSans-74"/>
      <use transform="translate(533.447266 0.015625)" xlink:href="#DejaVuSans-65"/>
      <use transform="translate(594.970703 0.015625)" xlink:href="#DejaVuSans-29"/>
     </g>
    </g>
   </g>
   <g id="line2d_78">
    <path clip-path="url(#p8f9463a699)" d="M 695.827651 69.886692 
L 712.613642 168.166212 
L 729.399634 144.526502 
L 746.185625 139.652358 
L 762.971616 116.501204 
L 779.757607 136.899722 
L 796.543598 125.3498 
L 813.329589 135.944396 
L 830.11558 113.567014 
L 846.901572 155.13426 
" style="fill:none;stroke:#0173b2;stroke-linecap:round;stroke-width:1.5;"/>
   </g>
   <g id="line2d_79">
    <path clip-path="url(#p8f9463a699)" d="M 695.827651 72.599251 
L 712.613642 170.622296 
L 729.399634 141.675972 
L 746.185625 133.083694 
L 762.971616 118.743148 
L 779.757607 140.855374 
L 796.543598 126.323389 
L 813.329589 135.929037 
L 830.11558 116.531722 
L 846.901572 149.264277 
" style="fill:none;stroke:#de8f05;stroke-linecap:round;stroke-width:1.5;"/>
   </g>
   <g id="line2d_80"/>
   <g id="line2d_81"/>
   <g id="patch_20">
    <path d="M 688.273955 239.365163 
L 688.273955 39.894194 
" style="fill:none;stroke:#cccccc;stroke-linecap:square;stroke-linejoin:miter;stroke-width:0.6;"/>
   </g>
   <g id="patch_21">
    <path d="M 854.455268 239.365163 
L 854.455268 39.894194 
" style="fill:none;stroke:#cccccc;stroke-linecap:square;stroke-linejoin:miter;stroke-width:0.6;"/>
   </g>
   <g id="patch_22">
    <path d="M 688.273955 239.365163 
L 854.455268 239.365163 
" style="fill:none;stroke:#cccccc;stroke-linecap:square;stroke-linejoin:miter;stroke-width:0.6;"/>
   </g>
   <g id="patch_23">
    <path d="M 688.273955 39.894194 
L 854.455268 39.894194 
" style="fill:none;stroke:#cccccc;stroke-linecap:square;stroke-linejoin:miter;stroke-width:0.6;"/>
   </g>
   <g id="text_86">
    <!-- D -->
    <g style="fill:#262626;" transform="translate(655.037693 12.1575)scale(0.16 -0.16)">
     <defs>
      <path d="M 1791 3756 
L 1791 909 
L 2222 909 
Q 2959 909 3348 1275 
Q 3738 1641 3738 2338 
Q 3738 3031 3350 3393 
Q 2963 3756 2222 3756 
L 1791 3756 
z
M 588 4666 
L 1856 4666 
Q 2919 4666 3439 4514 
Q 3959 4363 4331 4000 
Q 4659 3684 4818 3271 
Q 4978 2859 4978 2338 
Q 4978 1809 4818 1395 
Q 4659 981 4331 666 
Q 3956 303 3431 151 
Q 2906 0 1856 0 
L 588 0 
L 588 4666 
z
" id="DejaVuSans-Bold-44" transform="scale(0.015625)"/>
     </defs>
     <use xlink:href="#DejaVuSans-Bold-44"/>
    </g>
   </g>
   <g id="text_87">
    <!-- ERK1/2 -->
    <g style="fill:#262626;" transform="translate(745.503111 33.894194)scale(0.144 -0.144)">
     <defs>
      <path d="M 1625 4666 
L 2156 4666 
L 531 -594 
L 0 -594 
L 1625 4666 
z
" id="DejaVuSans-2f" transform="scale(0.015625)"/>
     </defs>
     <use xlink:href="#DejaVuSans-45"/>
     <use x="63.183594" xlink:href="#DejaVuSans-52"/>
     <use x="132.666016" xlink:href="#DejaVuSans-4b"/>
     <use x="198.242188" xlink:href="#DejaVuSans-31"/>
     <use x="261.865234" xlink:href="#DejaVuSans-2f"/>
     <use x="295.556641" xlink:href="#DejaVuSans-32"/>
    </g>
   </g>
   <g id="legend_3">
    <g id="patch_24">
     <path d="M 768.946518 69.779194 
L 848.855268 69.779194 
Q 850.455268 69.779194 850.455268 68.179194 
L 850.455268 45.494194 
Q 850.455268 43.894194 848.855268 43.894194 
L 768.946518 43.894194 
Q 767.346518 43.894194 767.346518 45.494194 
L 767.346518 68.179194 
Q 767.346518 69.779194 768.946518 69.779194 
z
" style="fill:#ffffff;opacity:0.8;stroke:#cccccc;stroke-linejoin:miter;"/>
    </g>
    <g id="line2d_82">
     <path d="M 770.546518 50.372944 
L 786.546518 50.372944 
" style="fill:none;stroke:#0173b2;stroke-linecap:round;stroke-width:1.5;"/>
    </g>
    <g id="line2d_83"/>
    <g id="text_88">
     <!-- ERK2: Y187-p -->
     <g style="fill:#262626;" transform="translate(792.946518 53.172944)scale(0.08 -0.08)">
      <defs>
       <path d="M 750 794 
L 1409 794 
L 1409 0 
L 750 0 
L 750 794 
z
M 750 3309 
L 1409 3309 
L 1409 2516 
L 750 2516 
L 750 3309 
z
" id="DejaVuSans-3a" transform="scale(0.015625)"/>
      </defs>
      <use xlink:href="#DejaVuSans-45"/>
      <use x="63.183594" xlink:href="#DejaVuSans-52"/>
      <use x="132.666016" xlink:href="#DejaVuSans-4b"/>
      <use x="198.242188" xlink:href="#DejaVuSans-32"/>
      <use x="261.865234" xlink:href="#DejaVuSans-3a"/>
      <use x="295.556641" xlink:href="#DejaVuSans-20"/>
      <use x="327.34375" xlink:href="#DejaVuSans-59"/>
      <use x="388.427734" xlink:href="#DejaVuSans-31"/>
      <use x="452.050781" xlink:href="#DejaVuSans-38"/>
      <use x="515.673828" xlink:href="#DejaVuSans-37"/>
      <use x="579.296875" xlink:href="#DejaVuSans-2d"/>
      <use x="615.380859" xlink:href="#DejaVuSans-70"/>
     </g>
    </g>
    <g id="line2d_84">
     <path d="M 770.546518 62.115444 
L 786.546518 62.115444 
" style="fill:none;stroke:#de8f05;stroke-linecap:round;stroke-width:1.5;"/>
    </g>
    <g id="line2d_85"/>
    <g id="text_89">
     <!-- ERK1: Y204-p -->
     <g style="fill:#262626;" transform="translate(792.946518 64.915444)scale(0.08 -0.08)">
      <use xlink:href="#DejaVuSans-45"/>
      <use x="63.183594" xlink:href="#DejaVuSans-52"/>
      <use x="132.666016" xlink:href="#DejaVuSans-4b"/>
      <use x="198.242188" xlink:href="#DejaVuSans-31"/>
      <use x="261.865234" xlink:href="#DejaVuSans-3a"/>
      <use x="295.556641" xlink:href="#DejaVuSans-20"/>
      <use x="327.34375" xlink:href="#DejaVuSans-59"/>
      <use x="388.427734" xlink:href="#DejaVuSans-32"/>
      <use x="452.050781" xlink:href="#DejaVuSans-30"/>
      <use x="515.673828" xlink:href="#DejaVuSans-34"/>
      <use x="579.296875" xlink:href="#DejaVuSans-2d"/>
      <use x="615.380859" xlink:href="#DejaVuSans-70"/>
     </g>
    </g>
   </g>
  </g>
 </g>
 <defs>
  <clipPath id="p670f14a381">
   <rect height="199.470969" width="166.181312" x="41.875891" y="39.894194"/>
  </clipPath>
  <clipPath id="p7ca80797d1">
   <rect height="199.470969" width="166.181312" x="270.686877" y="39.894194"/>
  </clipPath>
  <clipPath id="pd6f8113f2f">
   <rect height="199.470969" width="166.181312" x="479.480416" y="39.894194"/>
  </clipPath>
  <clipPath id="p8f9463a699">
   <rect height="199.470969" width="166.181312" x="688.273955" y="39.894194"/>
  </clipPath>
 </defs>
</svg>
